#N canvas 89 121 1196 629 10;
#X obj 102 151 cnv 15 578 55 empty empty DEPUIS:LUCIBOX 220 12 0 14
-170864 -1 0;
#N canvas 787 213 705 460 read_serial 0;
#X obj 188 127 list prepend;
#X obj 309 126 t l;
#X obj 139 93 t f f;
#X obj 119 187 bng 15 250 50 0 empty empty empty 17 7 0 10 -262144
-1 -1;
#X obj 119 158 sel 1;
#X obj 119 259 list prepend;
#X obj 323 199 bng 15 250 50 0 empty empty empty 17 7 0 10 -262144
-1 -1;
#X obj -36 315 print fromArduino;
#X obj 140 34 inlet;
#X text -12 9 read String from arduino and print it to console;
#X text 345 201 clear list;
#X text 50 127 end of msg;
#X obj 119 127 == 14;
#X obj 119 315 outlet;
#X obj 341 32 inlet;
#X connect 0 0 1 0;
#X connect 0 0 5 1;
#X connect 1 0 0 1;
#X connect 2 0 12 0;
#X connect 2 1 0 0;
#X connect 3 0 5 0;
#X connect 4 0 3 0;
#X connect 5 0 6 0;
#X connect 5 0 13 0;
#X connect 6 0 0 1;
#X connect 8 0 2 0;
#X connect 12 0 4 0;
#X connect 14 0 6 0;
#X restore 61 75 pd read_serial;
#X obj 101 153 vsl 15 50 0 255 0 0 empty empty A0 2 30 0 10 -249508
-1 -1 0 1;
#X obj 152 153 vsl 15 50 0 255 0 0 empty empty A2 2 30 0 10 -241442
-1 -1 0 1;
#X obj 178 153 vsl 15 50 0 255 0 0 empty empty A3 2 30 0 10 -241444
-1 -1 0 1;
#X obj 127 153 vsl 15 50 0 255 0 0 empty empty A1 2 30 0 10 -241442
-1 -1 0 1;
#X obj 61 113 route 0 1 2 3 4 5;
#X obj 257 191 tgl 15 0 empty empty D1 2 7 0 10 -204786 -1 -1 0 255
;
#X obj 37 22 r arduinoOUT;
#X obj 281 191 tgl 15 0 empty empty D2 2 7 0 10 -204786 -1 -1 0 255
;
#X obj 308 191 tgl 15 0 empty empty D3 2 7 0 10 -204786 -1 -1 0 255
;
#X obj 334 191 tgl 15 0 empty empty D4 2 7 0 10 -204786 -1 -1 0 255
;
#X obj -20 375 outlet;
#X obj -72 375 outlet;
#X obj 31 375 outlet;
#X obj 82 375 outlet;
#X obj 281 375 outlet;
#X obj 229 375 outlet;
#X obj 332 375 outlet;
#X obj 383 375 outlet;
#X obj 148 22 r arduino_reset;
#X obj 359 191 tgl 15 0 empty empty D5 2 7 0 10 -204786 -1 -1 0 255
;
#X obj 487 191 tgl 15 0 empty empty 10 2 7 0 10 -204786 -1 -1 0 255
;
#X obj 384 191 tgl 15 0 empty empty D6 2 7 0 10 -204786 -1 -1 0 255
;
#X obj 410 191 tgl 15 0 empty empty D7 2 7 0 10 -204786 -1 -1 0 255
;
#X obj 435 191 tgl 15 0 empty empty D8 2 7 0 10 -204786 -1 -1 0 255
;
#X obj 460 191 tgl 15 0 empty empty D9 2 7 0 10 -204786 -1 -1 0 255
;
#X obj 481 375 outlet;
#X obj 429 375 outlet;
#X obj 532 375 outlet;
#X obj 583 375 outlet;
#X obj 632 375 outlet;
#X obj 683 375 outlet;
#X obj 230 153 vsl 15 50 0 255 0 0 empty empty A5 2 30 0 10 -249508
-1 -1 0 1;
#X obj 204 153 vsl 15 50 0 255 0 0 empty empty A4 2 30 0 10 -241442
-1 -1 0 1;
#X obj 131 375 outlet;
#X obj 182 375 outlet;
#X obj 305 123 route 20 21 22 23 24 25 26 27 28 29 30 31 32 33 34 35
36;
#X obj 514 191 tgl 15 0 empty empty 11 2 7 0 10 -204786 -1 -1 0 255
;
#X obj 539 191 tgl 15 0 empty empty 12 2 7 0 10 -204786 -1 -1 0 255
;
#X obj 664 191 tgl 15 0 empty empty 17 2 7 0 10 -204786 -1 -1 0 255
;
#X obj 564 191 tgl 15 0 empty empty 13 2 7 0 10 -204786 -1 -1 0 255
;
#X obj 590 191 tgl 15 0 empty empty 14 2 7 0 10 -204786 -1 -1 0 255
;
#X obj 615 191 tgl 15 0 empty empty 15 2 7 0 10 -204786 -1 -1 0 255
;
#X obj 640 191 tgl 15 0 empty empty 16 2 7 0 10 -204786 -1 -1 0 255
;
#X obj 743 375 outlet;
#X obj 841 375 outlet;
#X obj 789 375 outlet;
#X obj 892 375 outlet;
#X obj 943 375 outlet;
#X obj 992 375 outlet;
#X obj 1043 375 outlet;
#X connect 1 0 6 0;
#X connect 1 0 37 0;
#X connect 2 0 13 0;
#X connect 3 0 14 0;
#X connect 4 0 15 0;
#X connect 5 0 12 0;
#X connect 6 0 2 0;
#X connect 6 1 5 0;
#X connect 6 2 3 0;
#X connect 6 3 4 0;
#X connect 6 4 34 0;
#X connect 6 5 33 0;
#X connect 7 0 17 0;
#X connect 8 0 1 0;
#X connect 9 0 16 0;
#X connect 10 0 18 0;
#X connect 11 0 19 0;
#X connect 20 0 1 1;
#X connect 21 0 28 0;
#X connect 22 0 32 0;
#X connect 23 0 27 0;
#X connect 24 0 29 0;
#X connect 25 0 30 0;
#X connect 26 0 31 0;
#X connect 33 0 36 0;
#X connect 34 0 35 0;
#X connect 37 0 7 0;
#X connect 37 1 9 0;
#X connect 37 2 10 0;
#X connect 37 3 11 0;
#X connect 37 4 21 0;
#X connect 37 5 23 0;
#X connect 37 6 24 0;
#X connect 37 7 25 0;
#X connect 37 8 26 0;
#X connect 37 9 22 0;
#X connect 37 10 38 0;
#X connect 37 11 39 0;
#X connect 37 12 41 0;
#X connect 37 13 42 0;
#X connect 37 14 43 0;
#X connect 37 15 44 0;
#X connect 37 16 40 0;
#X connect 38 0 45 0;
#X connect 39 0 47 0;
#X connect 40 0 51 0;
#X connect 41 0 46 0;
#X connect 42 0 48 0;
#X connect 43 0 49 0;
#X connect 44 0 50 0;
#X coords 0 -1 1 1 580 60 2 100 150;
