#N canvas 437 325 998 474 10;
#X obj 48 297 s arduinoIN;
#X obj 29 113 bng 15 250 50 0 empty empty empty 17 7 0 10 -262144 -1
-1;
#X obj 17 221 pack 13 255;
#X obj 119 91 t b f;
#X obj 119 157 i 0;
#X obj 173 91 t b f;
#X obj 595 111 t b f;
#X obj 648 112 t b f;
#X obj 173 159 i 1;
#X obj 618 172 i 4;
#X obj 693 173 i 5;
#X obj 108 192 pack 0 0;
#X obj 172 192 pack 0 0;
#X obj 625 212 pack 0 0;
#X obj 687 212 pack 0 0;
#X obj 205 -157 inlet;
#X obj 246 -157 inlet;
#X obj 329 -156 inlet;
#X obj 370 -156 inlet;
#X obj 261 -46 cnv 15 158 73 empty empty VERS:LUCIBOX 20 60 0 14 -108719
-1 0;
#X obj 633 37 vsl 15 40 0 255 0 0 empty empty empty 0 -9 0 10 -258113
-1 -1 0 1;
#X obj 616 37 vsl 15 40 0 255 0 0 empty empty empty 0 -9 0 10 -258113
-1 -1 0 1;
#X obj 287 -156 inlet;
#X obj 235 90 t b f;
#X obj 234 191 pack 0 0;
#X obj 235 158 i 2;
#X text 614 14 sermotor;
#X text 664 49 not used;
#X obj 293 89 t b f;
#X obj 292 190 pack 0 0;
#X obj 293 157 i 3;
#X obj 262 -46 tgl 20 0 empty empty 1 6 10 0 12 -172298 -262144 -262144
0 1;
#X obj 286 -46 tgl 20 0 empty empty 2 6 10 0 12 -172298 -262144 -262144
0 1;
#X obj 310 -46 tgl 20 0 empty empty 3 6 10 0 12 -172298 -262144 -262144
0 1;
#X obj 332 -46 tgl 20 0 empty empty 4 6 10 0 12 -172298 -262144 -262144
0 1;
#X obj 354 -46 tgl 20 0 empty empty 5 6 10 0 12 -172298 -262144 -262144
1 1;
#X obj 353 89 t b f;
#X obj 352 190 pack 0 0;
#X obj 353 157 i 4;
#X obj 377 -46 tgl 20 0 empty empty 6 6 10 0 12 -172298 -262144 -262144
0 1;
#X obj 399 -46 tgl 20 0 empty empty 7 6 10 0 12 -172298 -262144 -262144
0 1;
#X obj 409 -156 inlet;
#X obj 450 -156 inlet;
#X obj 413 89 t b f;
#X obj 412 190 pack 0 0;
#X obj 473 89 t b f;
#X obj 472 190 pack 0 0;
#X obj 413 157 i 5;
#X obj 473 157 i 6;
#X connect 1 0 2 0;
#X connect 2 0 0 0;
#X connect 3 0 4 0;
#X connect 3 1 11 1;
#X connect 4 0 11 0;
#X connect 5 0 8 0;
#X connect 5 1 12 1;
#X connect 6 0 9 0;
#X connect 6 1 13 1;
#X connect 7 0 10 0;
#X connect 7 1 14 1;
#X connect 8 0 12 0;
#X connect 9 0 13 0;
#X connect 10 0 14 0;
#X connect 11 0 0 0;
#X connect 12 0 0 0;
#X connect 13 0 0 0;
#X connect 14 0 0 0;
#X connect 15 0 31 0;
#X connect 16 0 32 0;
#X connect 17 0 34 0;
#X connect 18 0 35 0;
#X connect 20 0 7 0;
#X connect 21 0 6 0;
#X connect 22 0 33 0;
#X connect 23 0 25 0;
#X connect 23 1 24 1;
#X connect 24 0 0 0;
#X connect 25 0 24 0;
#X connect 28 0 30 0;
#X connect 28 1 29 1;
#X connect 29 0 0 0;
#X connect 30 0 29 0;
#X connect 31 0 3 0;
#X connect 32 0 5 0;
#X connect 33 0 23 0;
#X connect 34 0 28 0;
#X connect 35 0 36 0;
#X connect 36 0 38 0;
#X connect 36 1 37 1;
#X connect 37 0 0 0;
#X connect 38 0 37 0;
#X connect 39 0 43 0;
#X connect 40 0 45 0;
#X connect 41 0 39 0;
#X connect 42 0 40 0;
#X connect 43 0 47 0;
#X connect 43 1 44 1;
#X connect 44 0 0 0;
#X connect 45 0 48 0;
#X connect 45 1 46 1;
#X connect 46 0 0 0;
#X connect 47 0 44 0;
#X connect 48 0 46 0;
#X coords 0 -1 1 1 160 80 2 260 -50;
