#N canvas 430 58 804 657 10;
#N canvas 623 229 721 564 delay 0;
#X obj 260 322 delread~ delayMain;
#X floatatom 256 222 5 0 4000 1 ms - -, f 5;
#X obj 48 411 *~ 0.4;
#X obj 152 391 / 100;
#X floatatom 256 102 5 0 0 0 - - -, f 5;
#X obj 256 148 / 60;
#X obj 256 173 pow -1;
#X obj 256 198 * 1000;
#X floatatom 152 350 5 0 0 0 feedback effect_delay_feedbackOUT -,
f 5;
#X floatatom 209 159 5 0 4 0 dividing #1_effect_delay_dividing -,
f 5;
#X obj 256 124 * 1;
#X obj 33 459 +~;
#X obj 211 222 t b f;
#X obj 33 495 outlet~;
#X obj 259 279 / 3;
#X obj 209 191 + 1;
#X obj 33 65 *~ 0.05;
#X obj 103 105 *~ 0.9;
#X obj 103 451 delwrite~ delayMain 200;
#X obj 55 24 inlet~;
#X text 12 81 dry/wet fixed;
#X obj 414 340 s effect_delay_feedbackIN;
#X obj 312 255 s effect_delay_ms;
#X obj 414 312 extra/save_int \$1_effect_delay_feedback;
#X obj 256 78 extra/sv tempo;
#X obj 380 16 s effect_delay_feedbackOUT;
#X obj 380 -10 inlet;
#X floatatom 494 93 5 0 0 1 ms effect_delay_ms truc, f 5;
#X obj 480 241 hradio 15 1 0 7 \$1_effect_delay_dividing empty empty
0 -8 0 10 -128992 -262144 -1 2;
#X obj 486 127 vsl 35 100 0 100 0 0 effect_delay_feedbackOUT effect_delay_feedbackIN
empty 0 -9 0 10 -228856 -1 -1 5800 0;
#X text 446 93 duree;
#X text 553 93 de;
#X text 574 93 l'echo;
#X connect 0 0 2 0;
#X connect 1 0 14 0;
#X connect 1 0 22 0;
#X connect 2 0 11 1;
#X connect 2 0 18 0;
#X connect 3 0 2 1;
#X connect 4 0 10 0;
#X connect 5 0 6 0;
#X connect 6 0 7 0;
#X connect 7 0 1 0;
#X connect 8 0 3 0;
#X connect 9 0 15 0;
#X connect 10 0 5 0;
#X connect 11 0 13 0;
#X connect 12 0 14 0;
#X connect 12 1 14 1;
#X connect 14 0 0 0;
#X connect 15 0 12 0;
#X connect 16 0 11 0;
#X connect 17 0 18 0;
#X connect 19 0 16 0;
#X connect 19 0 17 0;
#X connect 23 0 21 0;
#X connect 24 0 4 0;
#X connect 26 0 25 0;
#X restore 13 132 pd delay;
#X obj 362 112 * 0.39;
#X obj 209 577 s transpose;
#X obj 55 570 outlet~;
#X obj 13 -23 inlet~;
#X obj 362 86 r effect_delay_feedback_raw;
#X obj 362 138 s effect_delay_feedbackIN;
#X obj 209 541 r effect_pitchOUT;
#X obj 59 -23 inlet~;
#X obj 104 -23 inlet~;
#X obj 127 264 rev2~;
#X floatatom 136 134 0 0 120 0 - - -;
#X text 177 134 level \, dB;
#X floatatom 180 158 0 0 100 0 - - -;
#X text 244 137 liveness \, 0-100;
#X floatatom 198 237 0 0 120 0 - - -;
#X floatatom 231 238 0 0 120 0 - - -;
#X text 246 262 crossover frequency \, Hz.;
#X obj 189 108 * 1.2;
#X msg 198 211 101;
#X msg 231 210 20;
#X obj 222 179 loadbang;
#X obj 211 58 ftom;
#X obj 211 34 * 4;
#X floatatom 211 11 5 0 255 0 - - -, f 5;
#X obj 211 -22 inlet;
#X obj 164 -23 inlet;
#X obj 262 -21 loadbang;
#X msg 257 8 120;
#X connect 0 0 3 0;
#X connect 1 0 6 0;
#X connect 4 0 0 0;
#X connect 5 0 1 0;
#X connect 7 0 2 0;
#X connect 8 0 10 0;
#X connect 10 0 3 0;
#X connect 11 0 10 1;
#X connect 13 0 10 2;
#X connect 15 0 10 3;
#X connect 16 0 10 4;
#X connect 18 0 13 0;
#X connect 19 0 15 0;
#X connect 20 0 16 0;
#X connect 21 0 19 0;
#X connect 21 0 20 0;
#X connect 22 0 18 0;
#X connect 22 0 11 0;
#X connect 23 0 22 0;
#X connect 24 0 23 0;
#X connect 25 0 24 0;
#X connect 26 0 0 1;
#X connect 27 0 28 0;
#X connect 28 0 23 0;
#X coords 0 657 1 656 132 500 0;
