#N canvas 398 126 696 604 10;
#X obj 90 -217 loadbang;
#X obj 90 -195 t b b b b;
#X floatatom 104 66 5 0 0 0 - - -, f 5;
#X obj 177 -138 symbol \$1;
#X msg 84 -62 rewind;
#X msg 24 -62 bang;
#X obj 104 -12 textfile;
#X obj 104 11 unpack f;
#X obj 104 33 i 0;
#X obj 121 230 i 0;
#X obj 60 292 symbol \$1;
#X msg 167 291 add2 \$1;
#X msg 223 292 clear;
#X obj 121 252 t b b f b;
#X obj 106 398 textfile;
#X obj 128 -114 pack s;
#X obj 1 323 pack s;
#X obj -76 -29 inlet;
#X obj -61 264 outlet;
#X obj 173 -216 bng 15 250 50 0 empty empty empty 17 7 0 10 -262144
-1 -1;
#X msg 137 -61 read ../preset/int_\$1.txt;
#X msg 2 351 write ../preset/int_\$1.txt;
#X obj 160 157 r save_all;
#X connect 0 0 1 0;
#X connect 1 0 5 0;
#X connect 1 1 4 0;
#X connect 1 2 15 0;
#X connect 1 3 3 0;
#X connect 2 0 18 0;
#X connect 3 0 15 0;
#X connect 4 0 6 0;
#X connect 5 0 6 0;
#X connect 6 0 7 0;
#X connect 7 0 8 0;
#X connect 8 0 2 0;
#X connect 9 0 13 0;
#X connect 10 0 16 0;
#X connect 11 0 14 0;
#X connect 12 0 14 0;
#X connect 13 0 16 0;
#X connect 13 1 10 0;
#X connect 13 2 11 0;
#X connect 13 3 12 0;
#X connect 15 0 20 0;
#X connect 16 0 21 0;
#X connect 17 0 9 0;
#X connect 19 0 1 0;
#X connect 20 0 6 0;
#X connect 21 0 14 0;
#X connect 22 0 9 0;
#X coords 0 604 1 603 32 14 0;
