#N canvas 44 23 1151 828 10;
#X declare -path ../;
#X declare -path ../;
#X declare -path ../externals/;
#X obj 35 107 cnv 15 1020 602 empty empty empty 20 12 0 14 -41876 -262144
0;
#N canvas 66 28 1374 823 input-output 1;
#X obj 101 101 cnv 15 1019 78 empty empty 3::LOOPER 400 30 0 35 -21525
-262144 0;
#N canvas 406 214 450 300 close 0;
#X obj 103 169 bng 15 250 50 0 empty empty empty 17 7 0 10 -262144
-1 -1;
#X obj 101 101 hradio 28 1 0 2 empty empty empty 0 -8 0 10 -262144
-1 -1 0;
#X obj 102 102 cnv 15 54 26 empty empty Quitter 3 12 0 12 -233017 -66577
0;
#X obj 91 48 inlet;
#X msg 104 193 \; pd-example/example2.pd menuclose \;;
#X connect 0 0 4 0;
#X connect 1 0 0 0;
#X connect 3 0 0 0;
#X coords 0 -1 1 1 58 30 1 100 100;
#X restore 1053 205 pd close;
#X obj 949 46 declare -path ../;
#X obj 420 581 dac~;
#X obj 419 532 *~ 1;
#X obj 104 149 arduino/arduino;
#X obj 486 192 arduino/arduino_in;
#X obj 832 639 audio/tempo;
#X obj 415 426 audio/recloop 1;
#X obj 565 731 arduino/arduino_out;
#X obj 237 290 audio/mic 1;
#X obj 237 241 adc~;
#X obj 241 531 *~ 1;
#X obj 1105 40 loadbang;
#X msg 1105 62 \; pd dsp 1;
#X obj 543 428 audio/recloop 2;
#X obj 696 427 audio/recloop 3;
#N canvas 295 134 623 468 verylong 0;
#X obj 153 75 inlet;
#X obj 152 180 timer;
#X obj 153 119 sel 0;
#X obj 187 149 bang;
#X obj 178 298 bng 15 250 50 0 empty empty empty 17 7 0 10 -262144
-1 -1;
#X obj 151 256 sel 0;
#X obj 178 334 outlet;
#X obj 380 102 sel 0;
#X obj 398 239 i 0;
#X obj 398 270 sel 0;
#X obj 425 312 bng 15 250 50 0 empty empty empty 17 7 0 10 -262144
-1 -1;
#X obj 425 338 outlet;
#X obj 151 224 > 2000;
#X obj 461 239 bng 15 250 50 0 empty empty empty 17 7 0 10 -262144
-1 -1;
#X obj 444 196 delay 8000;
#X msg 437 155 2000;
#X connect 0 0 2 0;
#X connect 0 0 7 0;
#X connect 0 0 8 1;
#X connect 1 0 12 0;
#X connect 2 0 1 1;
#X connect 2 1 3 0;
#X connect 3 0 1 0;
#X connect 4 0 6 0;
#X connect 5 1 4 0;
#X connect 7 1 15 0;
#X connect 8 0 9 0;
#X connect 9 1 10 0;
#X connect 10 0 11 0;
#X connect 12 0 5 0;
#X connect 14 0 8 0;
#X connect 14 0 13 0;
#X connect 15 0 14 0;
#X restore 943 404 pd verylong;
#X obj 942 477 s tempoStopIn;
#X obj 962 514 s 1_clear_fromUI;
#X obj 992 548 s 2_clear_fromUI;
#X obj 1013 583 s 3_clear_fromUI;
#X obj 912 478 bng 15 250 50 0 empty empty empty 17 7 0 10 -258113
-1 -1;
#X obj 1083 454 s 1_recloop_ui_waitforclear;
#X obj 1083 476 s 2_recloop_ui_waitforclear;
#X obj 1084 501 s 3_recloop_ui_waitforclear;
#X obj 943 426 bang;
#X obj 944 323 loadbang;
#X obj 944 345 delay 1000;
#X obj 512 268 / 127;
#X floatatom 512 298 5 0 0 0 - - -, f 5;
#X connect 4 0 3 0;
#X connect 4 0 3 1;
#X connect 6 0 10 1;
#X connect 6 1 29 0;
#X connect 6 6 8 1;
#X connect 6 7 8 2;
#X connect 6 8 15 1;
#X connect 6 9 15 2;
#X connect 6 10 16 1;
#X connect 6 11 17 0;
#X connect 6 11 16 2;
#X connect 8 0 4 0;
#X connect 8 1 9 0;
#X connect 8 2 9 1;
#X connect 10 0 12 0;
#X connect 10 0 8 0;
#X connect 10 0 15 0;
#X connect 10 0 16 0;
#X connect 11 0 10 0;
#X connect 11 1 10 0;
#X connect 12 0 3 0;
#X connect 12 0 3 1;
#X connect 13 0 14 0;
#X connect 15 0 4 0;
#X connect 15 1 9 2;
#X connect 15 2 9 3;
#X connect 16 0 4 0;
#X connect 16 1 9 4;
#X connect 16 2 9 5;
#X connect 17 0 26 0;
#X connect 17 1 23 0;
#X connect 17 1 24 0;
#X connect 17 1 25 0;
#X connect 26 0 22 0;
#X connect 26 0 18 0;
#X connect 26 0 19 0;
#X connect 26 0 20 0;
#X connect 26 0 21 0;
#X connect 27 0 28 0;
#X connect 28 0 26 0;
#X connect 29 0 30 0;
#X connect 30 0 4 1;
#X coords 0 -1 1 1 1020 80 2 100 100;
#X restore 36 22 pd input-output;
#X obj 35 713 UI/ui_tempo;
#X obj 59 163 UI/ui_recloop 1;
#X obj 370 163 UI/ui_recloop 2;
#X obj 689 164 UI/ui_recloop 3;
