#N canvas 384 23 1235 852 10;
#X declare -path ../;
#X obj 625 663 declare -path ../;
#X obj 35 874 UI/ui_tempo;
#X obj 173 514 audio/recloop 1;
#X obj 169 639 dac~;
#X obj 233 332 adc~;
#X obj 736 195 UI/ui_4_sync_loop 1;
#X obj 944 195 UI/ui_recloop 1;
#X obj 643 686 audio/tempo;
#X obj 234 383 audio/mic;
#X obj 97 585 *~ 1;
#X obj 226 589 *~ 1;
#X obj 276 589 *~ 1;
#X obj 62 99 bng 35 250 50 0 empty empty CLEAR 0 -10 0 10 -258113 -1
-1;
#X obj 37 225 s tempoStopIn;
#X obj 267 201 hradio 15 1 0 4 empty empty empty 0 -8 0 10 -262144
-1 -1 2;
#N canvas 56 477 562 440 istempoplaying 0;
#X obj 134 114 tgl 15 0 empty empty empty 17 7 0 10 -262144 -1 -1 1
1;
#X obj 113 323 outlet;
#X obj 188 324 outlet;
#X obj 165 8 inlet;
#X obj 23 24 r tempoGoOutBang;
#X msg 22 65 1;
#X msg 52 65 0;
#X obj 68 44 r tempoStopOut;
#X obj 205 90 t b f;
#X obj 167 189 sel 1 0;
#X obj 233 250 i -1;
#X obj 272 250 i -1;
#X obj 163 159 i -1;
#X connect 0 0 12 1;
#X connect 3 0 8 0;
#X connect 4 0 5 0;
#X connect 5 0 0 0;
#X connect 6 0 0 0;
#X connect 7 0 6 0;
#X connect 8 0 12 0;
#X connect 8 1 10 1;
#X connect 8 1 11 1;
#X connect 9 0 10 0;
#X connect 9 1 11 0;
#X connect 10 0 1 0;
#X connect 11 0 2 0;
#X connect 12 0 9 0;
#X coords 0 -1 1 1 85 30 1 100 100;
#X restore 469 399 pd istempoplaying;
#X obj 609 465 s tempoGoIn;
#X obj 62 188 s 1_clear_fromUI;
#X obj 373 402 sel 3;
#X obj 357 98 vsl 15 128 0 255 0 0 empty empty empty 0 -9 0 10 -262144
-1 -1 0 1;
#X obj 397 98 vsl 15 128 0 255 0 0 empty empty empty 0 -9 0 10 -262144
-1 -1 7570 1;
#X obj 481 133 vsl 15 128 80 160 0 0 empty empty empty 0 -9 0 10 -262144
-1 -1 6026 1;
#X obj 522 325 s tempo_fromUI;
#X obj 580 154 vsl 15 128 -200 200 0 0 empty empty empty 0 -9 0 10
-262144 -1 -1 6445 1;
#X obj 609 304 s recloop_1_transpose;
#X obj 192 99 bng 35 250 50 0 empty empty REC 0 -10 0 10 -4032 -1 -1
;
#X obj 204 150 s arduino_rec;
#X msg 618 135 0;
#X obj 611 103 r tempoStopIn;
#X obj 446 517 audio/4_sync_loop 1;
#X obj 384 674 tgl 25 0 empty empty LECTURE 0 -5 0 10 -4034 -1 -1 0
1;
#X obj 304 674 tgl 25 0 empty empty REC 0 -5 0 10 -258113 -1 -1 0 1
;
#X msg 345 439 4;
#X obj 305 517 audio/4_sync_loop 2;
#X obj 36 -59 arduino/arduino;
#X obj 255 -100 arduino/arduino_in;
#X obj 197 35 sel 0;
#X obj 408 -5 sel 255;
#X obj 467 -5 sel 255;
#X obj 518 -5 sel 255;
#X msg 391 34 0;
#X msg 463 36 1;
#X msg 496 33 2;
#X obj 344 62 i 0;
#N canvas 0 22 450 300 resizetempo 0;
#X obj 213 69 inlet;
#X obj 217 102 / 255;
#X obj 218 145 * 80;
#X obj 218 181 + 80;
#X obj 226 226 outlet;
#X connect 0 0 1 0;
#X connect 1 0 2 0;
#X connect 2 0 3 0;
#X connect 3 0 4 0;
#X restore 451 94 pd resizetempo;
#X obj 290 790 arduino/arduino_led;
#X msg 250 724 0;
#X obj 75 662 r 1_clear_fromUI;
#X obj 103 690 delay 2000;
#X msg 207 725 1;
#X obj 73 715 delay 2050;
#X msg 779 49 \; pd dsp 1;
#X obj 780 -4 loadbang;
#X obj 580 86 - 179;
#X connect 2 0 10 0;
#X connect 2 1 31 0;
#X connect 4 0 8 0;
#X connect 4 1 8 0;
#X connect 8 0 2 0;
#X connect 9 0 3 0;
#X connect 9 0 3 1;
#X connect 10 0 3 0;
#X connect 10 0 3 1;
#X connect 12 0 13 0;
#X connect 12 0 17 0;
#X connect 14 0 15 0;
#X connect 14 0 18 0;
#X connect 15 1 16 0;
#X connect 18 0 32 0;
#X connect 18 1 29 0;
#X connect 18 1 33 0;
#X connect 19 0 33 1;
#X connect 20 0 29 1;
#X connect 21 0 22 0;
#X connect 23 0 24 0;
#X connect 25 0 2 1;
#X connect 25 0 26 0;
#X connect 27 0 23 0;
#X connect 28 0 27 0;
#X connect 29 0 10 0;
#X connect 29 1 30 0;
#X connect 30 0 45 7;
#X connect 31 0 45 0;
#X connect 31 0 45 4;
#X connect 32 0 29 0;
#X connect 32 0 33 0;
#X connect 33 0 10 0;
#X connect 35 0 53 0;
#X connect 35 1 44 0;
#X connect 35 2 19 0;
#X connect 35 3 20 0;
#X connect 35 6 25 0;
#X connect 35 7 37 0;
#X connect 35 8 38 0;
#X connect 35 9 39 0;
#X connect 35 10 36 0;
#X connect 36 0 12 0;
#X connect 37 0 40 0;
#X connect 38 0 41 0;
#X connect 39 0 42 0;
#X connect 40 0 43 0;
#X connect 41 0 43 0;
#X connect 42 0 43 0;
#X connect 43 0 14 0;
#X connect 44 0 21 0;
#X connect 46 0 45 0;
#X connect 46 0 45 4;
#X connect 47 0 48 0;
#X connect 47 0 50 0;
#X connect 48 0 49 0;
#X connect 49 0 45 0;
#X connect 49 0 45 4;
#X connect 50 0 46 0;
#X connect 52 0 51 0;
#X connect 53 0 23 0;
