#N canvas 191 23 1235 852 10;
#X declare -path ../;
#X obj 625 663 declare -path ../;
#X obj 35 727 UI/ui_tempo;
#X obj 173 514 audio/recloop 1;
#X obj 169 639 dac~;
#X obj 233 332 adc~;
#X obj 736 195 UI/ui_4_sync_loop 1;
#X obj 944 195 UI/ui_recloop 1;
#X obj 643 686 audio/tempo;
#X obj 234 383 audio/mic;
#X obj 97 585 *~ 1;
#X obj 226 589 *~ 1;
#X obj 276 589 *~ 1;
#X obj 62 99 bng 35 250 50 0 empty empty CLEAR 0 -10 0 10 -258113 -1
-1;
#X obj 37 225 s tempoStopIn;
#X obj 267 201 hradio 15 1 0 4 empty empty empty 0 -8 0 10 -262144
-1 -1 3;
#N canvas 56 477 562 440 istempoplaying 0;
#X obj 134 114 tgl 15 0 empty empty empty 17 7 0 10 -262144 -1 -1 1
1;
#X obj 113 323 outlet;
#X obj 188 324 outlet;
#X obj 165 8 inlet;
#X obj 23 24 r tempoGoOutBang;
#X msg 22 65 1;
#X msg 52 65 0;
#X obj 68 44 r tempoStopOut;
#X obj 205 90 t b f;
#X obj 167 189 sel 1 0;
#X obj 233 250 i -1;
#X obj 272 250 i -1;
#X obj 163 159 i -1;
#X connect 0 0 12 1;
#X connect 3 0 8 0;
#X connect 4 0 5 0;
#X connect 5 0 0 0;
#X connect 6 0 0 0;
#X connect 7 0 6 0;
#X connect 8 0 12 0;
#X connect 8 1 10 1;
#X connect 8 1 11 1;
#X connect 9 0 10 0;
#X connect 9 1 11 0;
#X connect 10 0 1 0;
#X connect 11 0 2 0;
#X connect 12 0 9 0;
#X coords 0 -1 1 1 85 30 1 100 100;
#X restore 469 399 pd istempoplaying;
#X obj 609 465 s tempoGoIn;
#X obj 62 188 s 1_clear_fromUI;
#X obj 373 402 sel 3;
#X obj 357 98 vsl 15 128 0 255 0 0 empty empty empty 0 -9 0 10 -262144
-1 -1 0 1;
#X obj 397 98 vsl 15 128 0 255 0 0 empty empty empty 0 -9 0 10 -262144
-1 -1 0 1;
#X obj 471 101 vsl 15 128 80 160 0 0 empty empty empty 0 -9 0 10 -262144
-1 -1 0 1;
#X obj 522 325 s tempo_fromUI;
#X obj 546 93 vsl 15 128 -200 200 0 0 empty empty empty 0 -9 0 10 -262144
-1 -1 6350 1;
#X obj 560 234 s recloop_1_transpose;
#X obj 192 99 bng 35 250 50 0 empty empty REC 0 -10 0 10 -4032 -1 -1
;
#X obj 204 150 s arduino_rec;
#X msg 584 74 0;
#X obj 577 42 r tempoStopIn;
#X obj 446 517 audio/4_sync_loop 1;
#X obj 384 674 tgl 25 0 empty empty LECTURE 0 -5 0 10 -4034 -1 -1 0
1;
#X obj 304 674 tgl 25 0 empty empty REC 0 -5 0 10 -258113 -1 -1 0 1
;
#X msg 345 439 4;
#X obj 305 517 audio/4_sync_loop 2;
#X connect 2 0 10 0;
#X connect 2 1 31 0;
#X connect 4 0 8 0;
#X connect 4 1 8 0;
#X connect 8 0 2 0;
#X connect 8 0 9 0;
#X connect 9 0 3 0;
#X connect 9 0 3 1;
#X connect 10 0 3 0;
#X connect 10 0 3 1;
#X connect 12 0 13 0;
#X connect 12 0 17 0;
#X connect 14 0 15 0;
#X connect 14 0 18 0;
#X connect 15 1 16 0;
#X connect 18 0 32 0;
#X connect 18 1 29 0;
#X connect 18 1 33 0;
#X connect 19 0 33 1;
#X connect 20 0 29 1;
#X connect 21 0 22 0;
#X connect 23 0 24 0;
#X connect 25 0 2 1;
#X connect 25 0 26 0;
#X connect 27 0 23 0;
#X connect 28 0 27 0;
#X connect 29 0 10 0;
#X connect 29 1 30 0;
#X connect 32 0 29 0;
#X connect 32 0 33 0;
#X connect 33 0 10 0;
