#N canvas 174 23 1151 828 10;
#X declare -path ../;
#X declare -path ../;
#X declare -path ../externals/;
#X obj 35 107 cnv 15 1020 602 empty empty empty 20 12 0 14 -41876 -262144
0;
#N canvas 66 23 1374 828 input-output 0;
#X obj 101 101 cnv 15 1019 78 empty empty PEDALE\ DE\ BOUCLE 400 30
0 35 -21525 -262144 0;
#N canvas 406 214 450 300 close 0;
#X obj 103 169 bng 15 250 50 0 empty empty empty 17 7 0 10 -262144
-1 -1;
#X obj 101 101 hradio 28 1 0 2 empty empty empty 0 -8 0 10 -262144
-1 -1 0;
#X obj 102 102 cnv 15 54 26 empty empty Quitter 3 12 0 12 -233017 -66577
0;
#X obj 91 48 inlet;
#X msg 104 193 \; pd-example/example2.pd menuclose \;;
#X connect 0 0 4 0;
#X connect 1 0 0 0;
#X connect 3 0 0 0;
#X coords 0 -1 1 1 58 30 1 100 100;
#X restore 1053 205 pd close;
#X obj 949 46 declare -path ../;
#X obj 536 598 dac~;
#X obj 535 543 *~ 1;
#X obj 104 149 arduino/arduino;
#X obj 486 192 arduino/arduino_in;
#X obj 859 513 audio/tempo;
#X obj 415 426 audio/recloop 1;
#X obj 565 731 arduino/arduino_out;
#X obj 1105 40 loadbang;
#X msg 1105 62 \; pd dsp 1;
#X obj 633 601 s tempoStopIn;
#X msg 634 568 0;
#X obj 627 348 audio/4_free_sound 1;
#X msg 699 493 127;
#X connect 4 0 3 0;
#X connect 4 0 3 1;
#X connect 6 0 7 2;
#X connect 6 1 7 3;
#X connect 6 6 8 1;
#X connect 6 7 8 2;
#X connect 6 8 14 0;
#X connect 6 9 14 1;
#X connect 6 10 14 2;
#X connect 6 11 14 3;
#X connect 8 0 4 0;
#X connect 8 1 9 0;
#X connect 8 2 9 1;
#X connect 8 3 13 0;
#X connect 8 3 15 0;
#X connect 10 0 11 0;
#X connect 13 0 12 0;
#X connect 14 0 4 0;
#X connect 14 0 8 0;
#X connect 15 0 7 3;
#X coords 0 -1 1 1 1020 80 2 100 100;
#X restore 36 22 pd input-output;
#X obj 35 713 UI/ui_tempo;
#X obj 379 172 UI/ui_recloop 1;
#X obj 192 172 UI/ui_4_free_sound 1;
