#N canvas 701 49 759 569 10;
#X declare -path ../;
#X obj -298 116 audio/mic;
#X obj -165 41 declare -path ../;
#X obj -354 69 adc~;
#X obj -118 249 audio/tempo;
#X obj 35 465 UI/ui_tempo_small;
#X obj 177 23 UI/ui_4_recloopsave 1;
#X obj -367 267 *~ 1;
#X obj -366 296 dac~;
#X obj -333 149 audio/4_recloopsave 1;
#X obj 139 23 UI/ui_line_selection;
#X obj 610 23 UI/ui_play_line;
#X obj 322 23 UI/ui_4_recloopsave 2;
#X obj 466 23 UI/ui_4_recloopsave 3;
#X text -4 516 TODO decompte du quantif + pouvoir changer la valeur.
Enregistrer cette valeur de le fichier tempo ?;
#X text 451 518 TODO : load song avec un appuit sur + ou moins;
#X text 4 599 TODO \, rajouter un UI pour le microphone;
#X text 0 636 TODO \, rajouter UI pour le volume et les effets;
#X text 396 602 Ajouter un record general;
#X obj -7 248 UI/ui_mic;
#X obj -354 164 audio/4_recloopsave 2;
#X obj -396 184 audio/4_recloopsave 3;
#X connect 0 0 8 0;
#X connect 0 0 19 0;
#X connect 0 0 20 0;
#X connect 2 0 0 0;
#X connect 2 1 0 0;
#X connect 6 0 7 1;
#X connect 6 0 7 0;
#X connect 8 0 6 0;
#X connect 19 0 6 0;
#X connect 20 0 6 0;
