#N canvas 304 23 901 748 10;
#X declare -path ../;
#X text 179 516 TODO decompte du quantif + pouvoir changer la valeur.
Enregistrer cette valeur de le fichier tempo ?;
#X text 184 575 TODO \, rajouter UI pour le volume et les effets;
#X text 579 602 Ajouter un record general;
#X obj 192 207 cnv 15 660 260 empty empty empty 20 12 0 14 -233017
-66577 0;
#X obj 217 412 UI/ui_tempo_small;
#X obj 218 272 UI/ui_4_recloopsave_line;
#X obj 217 230 UI/ui_col_selection;
#X obj 192 118 cnv 15 660 80 empty empty LUCIDREAM 200 22 0 36 -21525
-88297 0;
#X obj 6 207 cnv 15 180 260 empty empty empty 20 12 0 14 -233017 -66577
0;
#X obj 17 271 UI/ui_mic;
#N canvas 169 80 1060 608 patch 1;
#X obj 101 101 cnv 15 138 40 empty empty PATCH 20 12 0 14 -66577 -262144
0;
#X obj 274 108 audio/mic;
#X obj 274 61 adc~;
#X obj 21 309 audio/tempo;
#X obj 274 386 *~ 1;
#X obj 274 415 dac~;
#X obj 277 271 audio/4_recloopsave_line;
#X obj 180 104 bng 35 250 50 0 empty empty OPEN 4 20 0 10 -262144 -1
-1;
#X msg 133 163 \; pd-patch vis 1;
#X obj 38 100 bng 35 250 50 0 empty empty CLOSE 4 20 0 10 -262144 -1
-1;
#X msg 38 164 \; pd-patch vis 0;
#X obj 13 260 declare -path ../;
#X obj 52 8 arduino/arduino;
#X obj 364 441 arduino/arduino_out;
#N canvas 274 317 450 300 selectedToLight 1;
#X obj 77 21 extra/sv col_selected;
#X obj 77 235 outlet;
#X obj 127 235 outlet;
#X obj 177 235 outlet;
#X obj 227 235 outlet;
#X obj 97 122 == 0;
#X obj 137 122 == 1;
#X obj 177 122 == 2;
#X obj 217 122 == 3;
#X obj 266 121 sel -1;
#X msg 266 151 1;
#X obj 266 180 t f f f f;
#X obj 86 56 t f f f f f f;
#X connect 0 0 12 0;
#X connect 5 0 1 0;
#X connect 6 0 2 0;
#X connect 7 0 3 0;
#X connect 8 0 4 0;
#X connect 9 0 10 0;
#X connect 10 0 11 0;
#X connect 11 0 1 0;
#X connect 11 1 2 0;
#X connect 11 2 3 0;
#X connect 11 3 4 0;
#X connect 12 0 9 0;
#X connect 12 2 5 0;
#X connect 12 3 6 0;
#X connect 12 4 7 0;
#X connect 12 5 8 0;
#X restore 686 364 pd selectedToLight;
#X obj 363 -41 arduino/arduino_in;
#X text 361 153 record;
#X text 433 154 play;
#N canvas 502 124 509 539 buttonToSelect 0;
#X obj 112 77 inlet;
#X obj 152 77 inlet;
#X obj 192 77 inlet;
#X obj 232 77 inlet;
#X msg 116 189 0;
#X msg 156 189 1;
#X msg 196 189 2;
#X msg 236 189 3;
#X obj 106 136 sel 0;
#X obj 146 136 sel 0;
#X obj 196 136 sel 0;
#X obj 236 136 sel 0;
#X obj 108 306 extra/sv col_selected;
#X text 242 286 Check if already checked;
#X text 246 307 if yes \, check everything;
#X obj 163 353 ==;
#X obj 163 274 t f b f;
#X obj 223 419 f 0;
#X obj 163 382 sel 0;
#X obj 182 476 extra/sv col_selected;
#X msg 140 432 -1;
#X text 56 434 -1 means ALL;
#X connect 0 0 8 0;
#X connect 1 0 9 0;
#X connect 2 0 10 0;
#X connect 3 0 11 0;
#X connect 4 0 16 0;
#X connect 5 0 16 0;
#X connect 6 0 16 0;
#X connect 7 0 16 0;
#X connect 8 1 4 0;
#X connect 9 1 5 0;
#X connect 10 1 6 0;
#X connect 11 1 7 0;
#X connect 12 1 15 1;
#X connect 15 0 18 0;
#X connect 16 0 15 0;
#X connect 16 1 12 2;
#X connect 16 2 17 1;
#X connect 17 0 19 1;
#X connect 18 0 17 0;
#X connect 18 1 20 0;
#X connect 20 0 19 1;
#X restore 603 125 pd buttonToSelect;
#N canvas 497 140 688 574 globalPlayAndDelete 0;
#X obj 81 22 inlet;
#X obj 87 91 extra/sv col_selected;
#X obj 87 127 pack f f;
#X obj 81 46 t b f;
#X text 134 13 if selection = -1 stop everything or delete everything
;
#X obj 87 158 route -1;
#N canvas 295 134 623 468 longORshort 0;
#X obj 153 75 inlet;
#X obj 152 180 timer;
#X obj 153 119 sel 0;
#X obj 187 149 bang;
#X obj 151 224 > 500;
#X obj 151 298 bng 15 250 50 0 empty empty empty 17 7 0 10 -262144
-1 -1;
#X obj 181 298 bng 15 250 50 0 empty empty empty 17 7 0 10 -262144
-1 -1;
#X obj 151 256 sel 0;
#X obj 151 419 outlet;
#X obj 223 417 outlet;
#X obj 380 102 sel 0;
#X obj 398 239 i 0;
#X obj 398 270 sel 0;
#X obj 399 311 bng 15 250 50 0 empty empty empty 17 7 0 10 -262144
-1 -1;
#X obj 431 312 bng 15 250 50 0 empty empty empty 17 7 0 10 -262144
-1 -1;
#X obj 432 414 s \$1_recloop_ui_waitforclear;
#X obj 444 196 delay 1000;
#X connect 0 0 2 0;
#X connect 0 0 10 0;
#X connect 0 0 11 1;
#X connect 1 0 4 0;
#X connect 2 0 1 1;
#X connect 2 1 3 0;
#X connect 3 0 1 0;
#X connect 4 0 7 0;
#X connect 5 0 8 0;
#X connect 7 0 5 0;
#X connect 7 1 6 0;
#X connect 10 1 16 0;
#X connect 11 0 12 0;
#X connect 12 0 13 0;
#X connect 12 1 14 0;
#X connect 14 0 9 0;
#X connect 16 0 11 0;
#X restore 87 187 pd longORshort;
#X obj 28 336 extra/sv tempo_isplaying;
#X obj 49 240 bang;
#X connect 0 0 3 0;
#X connect 1 1 2 0;
#X connect 2 0 5 0;
#X connect 3 0 1 2;
#X connect 3 1 2 1;
#X connect 5 0 6 0;
#X connect 6 0 8 0;
#X connect 8 0 7 0;
#X restore 548 176 pd globalPlayAndDelete;
#X obj 290 195 effect/main_effect;
#X obj 254 226 *~ 1;
#X connect 1 0 20 0;
#X connect 1 0 20 1;
#X connect 1 0 21 0;
#X connect 2 0 1 0;
#X connect 2 1 1 0;
#X connect 4 0 5 1;
#X connect 4 0 5 0;
#X connect 6 0 4 0;
#X connect 6 1 13 0;
#X connect 6 2 13 2;
#X connect 6 3 13 3;
#X connect 6 4 13 5;
#X connect 6 5 13 6;
#X connect 6 6 13 8;
#X connect 6 7 13 9;
#X connect 6 8 13 11;
#X connect 7 0 8 0;
#X connect 9 0 10 0;
#X connect 14 0 13 1;
#X connect 14 1 13 4;
#X connect 14 2 13 7;
#X connect 14 3 13 10;
#X connect 15 6 6 1;
#X connect 15 7 6 2;
#X connect 15 7 19 0;
#X connect 15 8 18 0;
#X connect 15 9 18 1;
#X connect 15 10 18 2;
#X connect 15 11 18 3;
#X connect 20 0 21 0;
#X connect 21 0 6 0;
#X connect 21 0 4 0;
#X coords 0 -1 1 1 140 42 2 100 100;
#X restore 19 413 pd patch;
#X text 186 620 Ajouter le clear sur l"UI;
