#N canvas 255 35 1151 828 10;
#X declare -path ../;
#X obj 35 107 cnv 15 1020 602 empty empty empty 20 12 0 14 -41876 -262144
0;
#N canvas 77 33 1374 823 input-output 0;
#X obj 101 101 cnv 15 1019 78 empty empty 1-synth 400 30 0 35 -21525
-262144 0;
#N canvas 406 214 450 300 close 0;
#X obj 103 169 bng 15 250 50 0 empty empty empty 17 7 0 10 -262144
-1 -1;
#X obj 101 101 hradio 28 1 0 2 empty empty empty 0 -8 0 10 -262144
-1 -1 0;
#X obj 102 102 cnv 15 54 26 empty empty Quitter 3 12 0 12 -233017 -66577
0;
#X obj 91 48 inlet;
#X msg 104 193 \; pd-example/example2.pd menuclose \;;
#X connect 0 0 4 0;
#X connect 1 0 0 0;
#X connect 3 0 0 0;
#X coords 0 -1 1 1 58 30 1 100 100;
#X restore 1053 205 pd close;
#X obj 949 46 declare -path ../;
#X obj 763 781 dac~;
#X obj 762 732 *~ 1;
#X obj 104 149 arduino/arduino;
#X obj 486 192 arduino/arduino_in;
#X obj 439 735 audio/tempo;
#X obj 705 861 arduino/arduino_out;
#X obj 237 290 audio/mic 1;
#X obj 237 241 adc~;
#X obj 241 531 *~ 1;
#X obj 1105 40 loadbang;
#X msg 1105 62 \; pd dsp 1;
#X obj 538 148 cnv 15 170 30 empty empty Niveau:1 20 15 0 28 -233017
-66577 0;
#X obj 658 439 synth/wooble;
#X obj 903 238 notein;
#X obj 903 291 pack f f;
#X obj 884 445 synth/synthe-voice;
#X floatatom 991 316 5 0 0 0 - - -, f 5;
#X obj 982 283 * 4;
#X obj 1116 449 synth/synth-fm;
#X obj 1045 290 * 2;
#X obj 812 732 *~ 1;
#X obj 852 732 *~ 1;
#X obj 882 606 / 50;
#X obj 882 581 ctlin 7;
#X obj 802 606 / 50;
#X obj 742 606 / 50;
#X obj 802 581 ctlin 6;
#X obj 742 581 ctlin 5;
#X obj 917 388 ctlin 20;
#X obj 1041 239 ctlin 3;
#X obj 981 239 ctlin 2;
#X obj 781 259 ctlin 1;
#X connect 4 0 3 0;
#X connect 4 0 3 1;
#X connect 6 0 9 1;
#X connect 9 0 11 0;
#X connect 9 0 18 0;
#X connect 10 0 9 0;
#X connect 10 1 9 0;
#X connect 12 0 13 0;
#X connect 15 0 4 0;
#X connect 16 0 17 0;
#X connect 16 1 17 1;
#X connect 17 0 18 3;
#X connect 17 0 15 0;
#X connect 17 0 21 0;
#X connect 18 0 23 0;
#X connect 19 0 18 2;
#X connect 20 0 19 0;
#X connect 21 0 24 0;
#X connect 22 0 21 1;
#X connect 23 0 3 0;
#X connect 23 0 3 1;
#X connect 24 0 3 0;
#X connect 24 0 3 1;
#X connect 25 0 24 1;
#X connect 26 0 25 0;
#X connect 27 0 23 1;
#X connect 28 0 4 1;
#X connect 29 0 27 0;
#X connect 30 0 28 0;
#X connect 31 0 18 1;
#X connect 32 0 22 0;
#X connect 33 0 20 0;
#X connect 34 0 15 1;
#X coords 0 -1 1 1 1020 80 2 100 100;
#X restore 36 22 pd input-output;
#X obj 35 713 UI/ui_tempo;
