#N canvas 274 23 859 590 10;
#X declare -path ../;
#X obj 192 207 cnv 15 660 260 empty empty empty 20 12 0 14 -233017
-66577 0;
#X obj 217 412 UI/ui_tempo_small;
#X obj 218 272 UI/ui_4_recloopsave_line;
#X obj 217 230 UI/ui_col_selection;
#X obj 7 124 cnv 15 845 80 empty empty LUCIBOX 330 30 0 45 -21525 -88297
0;
#X obj 6 207 cnv 15 180 260 empty empty empty 20 12 0 14 -233017 -66577
0;
#X obj 20 236 UI/ui_mic;
#N canvas 22 22 876 699 patch 1;
#X obj 101 101 cnv 15 138 40 empty empty PATCH 20 12 0 14 -66577 -262144
0;
#X obj 277 155 audio/mic;
#X obj 277 108 adc~;
#X obj 21 309 audio/tempo;
#X obj 274 386 *~ 1;
#X obj 274 415 dac~;
#X obj 277 271 audio/4_recloopsave_line;
#X obj 38 100 bng 35 250 50 0 empty empty CLOSE 4 20 0 10 -262144 -1
-1;
#X msg 38 164 \; pd-patch vis 0;
#X obj 13 260 declare -path ../;
#X obj 164 -39 arduino/arduino;
#X obj 364 441 arduino/arduino_out;
#N canvas 274 317 450 300 selectedToLight 0;
#X obj 77 21 extra/sv col_selected;
#X obj 77 235 outlet;
#X obj 127 235 outlet;
#X obj 177 235 outlet;
#X obj 227 235 outlet;
#X obj 97 122 == 0;
#X obj 137 122 == 1;
#X obj 177 122 == 2;
#X obj 217 122 == 3;
#X obj 266 121 sel -1;
#X msg 266 151 1;
#X obj 266 180 t f f f f;
#X obj 86 56 t f f f f f f;
#X connect 0 0 12 0;
#X connect 5 0 1 0;
#X connect 6 0 2 0;
#X connect 7 0 3 0;
#X connect 8 0 4 0;
#X connect 9 0 10 0;
#X connect 10 0 11 0;
#X connect 11 0 1 0;
#X connect 11 1 2 0;
#X connect 11 2 3 0;
#X connect 11 3 4 0;
#X connect 12 0 9 0;
#X connect 12 2 5 0;
#X connect 12 3 6 0;
#X connect 12 4 7 0;
#X connect 12 5 8 0;
#X restore 686 364 pd selectedToLight;
#X obj 363 -41 arduino/arduino_in;
#X text 361 153 record;
#X text 433 154 play;
#N canvas 502 124 509 539 buttonToSelect 0;
#X obj 112 77 inlet;
#X obj 152 77 inlet;
#X obj 192 77 inlet;
#X obj 232 77 inlet;
#X msg 116 189 0;
#X msg 156 189 1;
#X msg 196 189 2;
#X msg 236 189 3;
#X obj 106 136 sel 0;
#X obj 146 136 sel 0;
#X obj 196 136 sel 0;
#X obj 236 136 sel 0;
#X obj 108 306 extra/sv col_selected;
#X text 242 286 Check if already checked;
#X text 246 307 if yes \, check everything;
#X obj 163 353 ==;
#X obj 163 274 t f b f;
#X obj 223 419 f 0;
#X obj 163 382 sel 0;
#X obj 182 476 extra/sv col_selected;
#X msg 140 432 -1;
#X text 56 434 -1 means ALL;
#X connect 0 0 8 0;
#X connect 1 0 9 0;
#X connect 2 0 10 0;
#X connect 3 0 11 0;
#X connect 4 0 16 0;
#X connect 5 0 16 0;
#X connect 6 0 16 0;
#X connect 7 0 16 0;
#X connect 8 1 4 0;
#X connect 9 1 5 0;
#X connect 10 1 6 0;
#X connect 11 1 7 0;
#X connect 12 1 15 1;
#X connect 15 0 18 0;
#X connect 16 0 15 0;
#X connect 16 1 12 2;
#X connect 16 2 17 1;
#X connect 17 0 19 1;
#X connect 18 0 17 0;
#X connect 18 1 20 0;
#X connect 20 0 19 1;
#X restore 571 125 pd buttonToSelect;
#N canvas 662 106 688 574 globalPlayAndDelete 0;
#X obj 81 22 inlet;
#X obj 87 91 extra/sv col_selected;
#X obj 87 127 pack f f;
#X obj 81 46 t b f;
#X text 134 13 if selection = -1 stop everything or delete everything
;
#X obj 87 158 route -1;
#N canvas 295 134 623 468 longORshort 0;
#X obj 153 75 inlet;
#X obj 152 180 timer;
#X obj 153 119 sel 0;
#X obj 187 149 bang;
#X obj 151 224 > 500;
#X obj 151 298 bng 15 250 50 0 empty empty empty 17 7 0 10 -262144
-1 -1;
#X obj 181 298 bng 15 250 50 0 empty empty empty 17 7 0 10 -262144
-1 -1;
#X obj 151 256 sel 0;
#X obj 151 419 outlet;
#X obj 223 417 outlet;
#X obj 380 102 sel 0;
#X obj 398 239 i 0;
#X obj 398 270 sel 0;
#X obj 399 311 bng 15 250 50 0 empty empty empty 17 7 0 10 -262144
-1 -1;
#X obj 431 312 bng 15 250 50 0 empty empty empty 17 7 0 10 -262144
-1 -1;
#X obj 432 414 s \$1_recloop_ui_waitforclear;
#X obj 444 196 delay 1000;
#X connect 0 0 2 0;
#X connect 0 0 10 0;
#X connect 0 0 11 1;
#X connect 1 0 4 0;
#X connect 2 0 1 1;
#X connect 2 1 3 0;
#X connect 3 0 1 0;
#X connect 4 0 7 0;
#X connect 5 0 8 0;
#X connect 7 0 5 0;
#X connect 7 1 6 0;
#X connect 10 1 16 0;
#X connect 11 0 12 0;
#X connect 12 0 13 0;
#X connect 12 1 14 0;
#X connect 14 0 9 0;
#X connect 16 0 11 0;
#X restore 87 187 pd longORshort;
#X obj 28 336 extra/sv tempo_isplaying;
#X obj 49 240 bang;
#X obj 176 275 extra/sv 2_1_is_loop_recorded;
#X obj 176 245 extra/sv 1_1_is_loop_recorded;
#X obj 366 245 extra/sv 3_1_is_loop_recorded;
#X obj 366 275 extra/sv 4_1_is_loop_recorded;
#X msg 354 209 0;
#X connect 0 0 3 0;
#X connect 1 1 2 0;
#X connect 2 0 5 0;
#X connect 3 0 1 2;
#X connect 3 1 2 1;
#X connect 5 0 6 0;
#X connect 6 0 8 0;
#X connect 6 1 13 0;
#X connect 8 0 7 0;
#X connect 13 0 10 1;
#X connect 13 0 9 1;
#X connect 13 0 11 1;
#X connect 13 0 12 1;
#X connect 13 0 7 1;
#X restore 545 176 pd globalPlayAndDelete;
#X obj 277 230 *~ 1;
#X obj 277 195 effect/main_effect 1;
#N canvas 447 412 1038 529 open 0;
#X text 462 314 label-color;
#X text 477 339 label-color;
#X obj 377 311 t b f;
#X msg 400 277 2;
#X obj 466 220 loadbang;
#X obj 104 101 hradio 15 1 0 2 empty empty empty 0 -8 0 10 -262144
-1 -1 1;
#X obj 104 166 bang;
#X msg 363 277 43;
#X obj 101 101 cnv 15 38 15 empty \$0_opencnv open 6 8 0 10 -66577
-262144 0;
#X msg 405 398 \; \$4_opencnv color \$1 \$2 \$3;
#X obj 363 197 bang;
#X obj 404 365 pack 43 0 0 \$0;
#X obj 400 220 delay 200;
#X msg 104 202 \; pd-patch vis 1;
#X connect 2 1 11 0;
#X connect 3 0 2 0;
#X connect 4 0 3 0;
#X connect 5 0 6 0;
#X connect 6 0 10 0;
#X connect 6 0 13 0;
#X connect 7 0 2 0;
#X connect 10 0 7 0;
#X connect 10 0 12 0;
#X connect 11 0 9 0;
#X connect 12 0 3 0;
#X coords 0 -1 1 1 40 17 2 100 100;
#X restore 176 106 pd open;
#X obj 131 421 audio/exportwav;
#X obj 211 360 bng 15 250 50 0 empty empty empty 17 7 0 10 -262144
-1 -1;
#X obj 175 366 bng 15 250 50 0 empty empty empty 17 7 0 10 -262144
-1 -1;
#X obj 220 230 *~ 0.7;
#X connect 1 0 19 0;
#X connect 2 0 1 0;
#X connect 2 1 1 0;
#X connect 4 0 5 1;
#X connect 4 0 5 0;
#X connect 4 0 21 0;
#X connect 6 0 4 0;
#X connect 6 1 11 0;
#X connect 6 2 11 2;
#X connect 6 3 11 3;
#X connect 6 4 11 5;
#X connect 6 5 11 6;
#X connect 6 6 11 8;
#X connect 6 7 11 9;
#X connect 6 8 11 11;
#X connect 7 0 8 0;
#X connect 12 0 11 1;
#X connect 12 1 11 4;
#X connect 12 2 11 7;
#X connect 12 3 11 10;
#X connect 13 6 6 1;
#X connect 13 7 6 2;
#X connect 13 7 17 0;
#X connect 13 8 16 0;
#X connect 13 9 16 1;
#X connect 13 10 16 2;
#X connect 13 11 16 3;
#X connect 18 0 6 0;
#X connect 19 0 24 0;
#X connect 19 1 18 0;
#X connect 19 1 24 0;
#X connect 19 2 18 0;
#X connect 19 2 24 0;
#X connect 19 3 18 0;
#X connect 22 0 21 2;
#X connect 23 0 21 1;
#X connect 24 0 4 0;
#X coords 0 -1 1 1 140 42 2 100 100;
#X restore 24 156 pd patch;
#X obj 21 351 UI/ui_main_effect 1;
#X obj 6 480 UI/ui_exportwav;
