#N canvas 190 39 1076 724 10;
#X declare -path ../;
#X obj 192 207 cnv 15 660 360 empty empty empty 20 12 0 14 -233017
-66577 0;
#X obj 213 518 UI/ui_tempo_small;
#X obj 192 118 cnv 15 660 80 empty empty NINTENDO-MPC 200 22 0 36 -21525
-88297 0;
#X obj 6 207 cnv 15 180 260 empty empty empty 20 12 0 14 -233017 -66577
0;
#X obj 17 271 UI/ui_mic;
#N canvas 246 82 1145 618 patch 0;
#X obj 101 101 cnv 15 138 40 empty empty PATCH 20 12 0 14 -66577 -262144
0;
#X obj 274 108 audio/mic;
#X obj 274 61 adc~;
#X obj 366 244 audio/tempo;
#X obj 606 434 *~ 1;
#X obj 606 463 dac~;
#X obj 180 104 bng 35 250 50 0 empty empty OPEN 4 20 0 10 -262144 -1
-1;
#X msg 133 163 \; pd-patch vis 1;
#X obj 38 100 bng 35 250 50 0 empty empty CLOSE 4 20 0 10 -262144 -1
-1;
#X msg 38 164 \; pd-patch vis 0;
#X obj 253 17 declare -path ../;
#X obj 466 177 audio/4_free_sound 1;
#X obj 451 125 bng 15 250 50 0 empty empty empty 17 7 0 10 -262144
-1 -1;
#X obj 48 14 arduino/arduino;
#X obj 379 -22 arduino/arduino_in;
#X obj 484 506 arduino/arduino_out;
#X obj 424 91 sel 0;
#X obj 618 178 audio/4_free_sound 2;
#X obj 787 180 audio/4_free_sound 3;
#X obj 274 141 s~ audioIn1;
#X obj 807 402 effect/main_effect;
#X obj 807 339 *~ 1;
#X obj 377 59 s A0;
#X obj 407 59 s A1;
#X obj 439 59 s A2;
#X obj 833 233 r A0;
#X obj 833 307 dbtorms;
#X obj 833 258 / 4;
#X obj 833 283 + 50;
#X obj 897 339 *~ 1;
#X obj 923 307 dbtorms;
#X obj 923 258 / 4;
#X obj 923 283 + 50;
#X obj 923 233 r A1;
#X obj 993 303 loadbang;
#X floatatom 936 369 5 0 0 0 - - -, f 5;
#X floatatom 976 369 5 0 0 0 - - -, f 5;
#X msg 996 338 228;
#X msg 951 343 79;
#X obj 1036 128 r A2;
#X obj 1036 152 / 2;
#X obj 1036 267 s globalPitch;
#X obj 1036 179 - 0;
#X obj 1041 222 sel 0;
#X msg 1000 247 44;
#X text 976 172 Pitch;
#X connect 1 0 19 0;
#X connect 2 0 1 0;
#X connect 2 1 1 0;
#X connect 4 0 5 1;
#X connect 4 0 5 0;
#X connect 6 0 7 0;
#X connect 8 0 9 0;
#X connect 11 0 4 0;
#X connect 11 0 21 0;
#X connect 11 0 29 0;
#X connect 11 1 15 0;
#X connect 12 0 11 5;
#X connect 12 0 17 5;
#X connect 12 0 18 5;
#X connect 14 0 22 0;
#X connect 14 1 23 0;
#X connect 14 2 24 0;
#X connect 14 6 16 0;
#X connect 14 7 11 1;
#X connect 14 8 11 2;
#X connect 14 9 11 3;
#X connect 14 10 11 4;
#X connect 14 11 17 1;
#X connect 14 12 17 2;
#X connect 14 13 17 3;
#X connect 14 14 17 4;
#X connect 14 15 18 1;
#X connect 14 16 18 2;
#X connect 14 17 18 3;
#X connect 14 18 18 4;
#X connect 16 1 12 0;
#X connect 17 0 4 0;
#X connect 17 0 21 0;
#X connect 17 0 29 0;
#X connect 18 0 4 0;
#X connect 18 0 21 0;
#X connect 18 0 29 0;
#X connect 20 0 4 0;
#X connect 21 0 20 0;
#X connect 25 0 27 0;
#X connect 26 0 21 1;
#X connect 27 0 28 0;
#X connect 28 0 26 0;
#X connect 29 0 20 1;
#X connect 30 0 29 1;
#X connect 31 0 32 0;
#X connect 32 0 30 0;
#X connect 33 0 31 0;
#X connect 34 0 37 0;
#X connect 34 0 38 0;
#X connect 35 0 20 3;
#X connect 36 0 20 4;
#X connect 37 0 36 0;
#X connect 38 0 35 0;
#X connect 39 0 40 0;
#X connect 40 0 42 0;
#X connect 42 0 43 0;
#X connect 43 0 44 0;
#X connect 43 1 41 0;
#X connect 44 0 41 0;
#X coords 0 -1 1 1 140 42 2 100 100;
#X restore 19 413 pd patch;
#X obj 276 211 UI/ui_4_free_sound 1;
#X obj 276 301 UI/ui_4_free_sound 2;
#X obj 276 392 UI/ui_4_free_sound 3;
