#N canvas 475 151 901 748 10;
#X declare -path ../;
#X text 179 516 TODO decompte du quantif + pouvoir changer la valeur.
Enregistrer cette valeur de le fichier tempo ?;
#X text 184 575 TODO \, rajouter UI pour le volume et les effets;
#X text 579 602 Ajouter un record general;
#X obj 192 207 cnv 15 660 260 empty empty empty 20 12 0 14 -233017
-66577 0;
#X obj 217 412 UI/ui_tempo_small;
#X obj 218 272 UI/ui_4_recloopsave_line;
#X obj 217 230 UI/ui_col_selection;
#X obj 192 118 cnv 15 660 80 empty empty LUCIDREAM 200 22 0 36 -21525
-88297 0;
#X obj 6 207 cnv 15 180 260 empty empty empty 20 12 0 14 -233017 -66577
0;
#X obj 17 271 UI/ui_mic;
#N canvas 1923 100 1060 608 patch 1;
#X obj 101 101 cnv 15 138 40 empty empty PATCH 20 12 0 14 -66577 -262144
0;
#X obj 274 108 audio/mic;
#X obj 274 61 adc~;
#X obj 364 245 audio/tempo;
#X obj 274 246 *~ 1;
#X obj 274 275 dac~;
#X obj 274 173 audio/4_recloopsave_line;
#X obj 180 104 bng 35 250 50 0 empty empty OPEN 4 20 0 10 -262144 -1
-1;
#X msg 133 163 \; pd-patch vis 1;
#X obj 38 100 bng 35 250 50 0 empty empty CLOSE 4 20 0 10 -262144 -1
-1;
#X msg 38 164 \; pd-patch vis 0;
#X obj 95 263 declare -path ../;
#X obj 52 8 arduino/arduino;
#X obj 364 441 arduino/arduino_out;
#N canvas 274 317 450 300 selectedToLight 0;
#X obj 76 40 extra/sv col_selected;
#X obj 77 235 outlet;
#X obj 127 235 outlet;
#X obj 177 235 outlet;
#X obj 227 235 outlet;
#X obj 97 122 == 3;
#X obj 137 122 == 2;
#X obj 177 122 == 1;
#X obj 217 122 == 0;
#X connect 0 0 5 0;
#X connect 0 0 6 0;
#X connect 0 0 7 0;
#X connect 0 0 8 0;
#X connect 5 0 1 0;
#X connect 6 0 2 0;
#X connect 7 0 3 0;
#X connect 8 0 4 0;
#X restore 686 364 pd selectedToLight;
#X obj 363 -41 arduino/arduino_in;
#X text 361 153 record;
#X text 433 154 play;
#N canvas 1178 120 450 300 buttonToSelect 0;
#X obj 112 77 inlet;
#X obj 152 77 inlet;
#X obj 192 77 inlet;
#X obj 232 77 inlet;
#X msg 116 189 0;
#X msg 156 189 1;
#X msg 196 189 2;
#X msg 236 189 3;
#X obj 106 136 sel 0;
#X obj 146 136 sel 0;
#X obj 196 136 sel 0;
#X obj 236 136 sel 0;
#X obj 118 262 extra/sv col_selected;
#X connect 0 0 8 0;
#X connect 1 0 9 0;
#X connect 2 0 10 0;
#X connect 3 0 11 0;
#X connect 4 0 12 1;
#X connect 5 0 12 1;
#X connect 6 0 12 1;
#X connect 7 0 12 1;
#X connect 8 1 4 0;
#X connect 9 1 5 0;
#X connect 10 1 6 0;
#X connect 11 1 7 0;
#X restore 603 125 pd buttonToSelect;
#X connect 1 0 6 0;
#X connect 2 0 1 0;
#X connect 2 1 1 0;
#X connect 4 0 5 1;
#X connect 4 0 5 0;
#X connect 6 0 4 0;
#X connect 7 0 8 0;
#X connect 9 0 10 0;
#X connect 14 0 13 1;
#X connect 14 1 13 4;
#X connect 14 2 13 7;
#X connect 14 3 13 10;
#X connect 15 6 6 1;
#X connect 15 7 6 2;
#X connect 15 8 18 0;
#X connect 15 9 18 1;
#X connect 15 10 18 2;
#X connect 15 11 18 3;
#X coords 0 -1 1 1 140 42 2 100 100;
#X restore 19 413 pd patch;
#X text 186 620 Ajouter le clear sur l"UI;
