#N canvas 327 23 1151 828 10;
#X declare -path ../;
#X obj 35 107 cnv 15 1020 602 empty empty empty 20 12 0 14 -41876 -262144
0;
#N canvas 391 23 904 785 input-output 1;
#N canvas 406 214 450 300 close 0;
#X obj 103 169 bng 15 250 50 0 empty empty empty 17 7 0 10 -262144
-1 -1;
#X obj 101 101 hradio 28 1 0 2 empty empty empty 0 -8 0 10 -262144
-1 -1 0;
#X obj 102 102 cnv 15 54 26 empty empty Quitter 3 12 0 12 -233017 -66577
0;
#X obj 91 48 inlet;
#X msg 104 193 \; pd-example/example2.pd menuclose \;;
#X connect 0 0 4 0;
#X connect 1 0 0 0;
#X connect 3 0 0 0;
#X coords 0 -1 1 1 58 30 1 100 100;
#X restore 1053 205 pd close;
#X obj 949 46 declare -path ../;
#X obj 577 648 dac~;
#X obj 576 593 *~ 1;
#X obj 486 192 arduino/arduino_in;
#X obj 859 513 audio/tempo;
#X obj 415 426 audio/recloop 1;
#X obj 448 755 arduino/arduino_out;
#X obj 1105 40 loadbang;
#X msg 1105 62 \; pd dsp 1;
#X obj 674 651 s tempoStopIn;
#X msg 675 618 0;
#X obj 708 402 audio/4_free_sound 1;
#X msg 922 443 127;
#X obj 101 101 cnv 15 1019 78 empty empty Piezo 400 34 0 35 -21525
-262144 0;
#X obj 103 147 arduino/arduino;
#X obj 500 149 cnv 15 170 30 empty empty Niveau:3 20 15 0 28 -233017
-66577 0;
#X obj 708 375 bng 15 250 50 0 empty empty empty 17 7 0 10 -262144
-1 -1;
#X obj 708 350 bang;
#X obj 657 323 moses 100;
#X obj 360 252 audio/mic;
#X obj 360 230 adc~;
#X obj 360 292 s~ audioIn1;
#X text 356 314 send to free_sound;
#X obj 850 349 r recmode_ui;
#X obj 678 548 rev2~ 90 80 12000 80;
#X connect 3 0 2 0;
#X connect 3 0 2 1;
#X connect 4 0 19 0;
#X connect 4 6 6 1;
#X connect 4 7 6 2;
#X connect 6 0 3 0;
#X connect 6 1 7 0;
#X connect 6 2 7 1;
#X connect 6 3 11 0;
#X connect 6 3 13 0;
#X connect 8 0 9 0;
#X connect 11 0 10 0;
#X connect 12 0 6 0;
#X connect 12 0 3 0;
#X connect 12 0 25 0;
#X connect 13 0 5 3;
#X connect 17 0 12 0;
#X connect 18 0 17 0;
#X connect 19 1 18 0;
#X connect 20 0 22 0;
#X connect 21 0 20 0;
#X connect 24 0 12 4;
#X connect 25 0 3 0;
#X connect 25 1 3 0;
#X coords 0 -1 1 1 1020 80 2 100 100;
#X restore 36 22 pd input-output;
#X obj 35 713 UI/ui_tempo;
#X obj 379 172 UI/ui_recloop 1;
#X obj 192 172 UI/ui_4_free_sound 1;
#X obj 220 617 tgl 90 0 recmode_ui empty Enregistrement 2 40 0 10 -258113
-1 -1 0 1;
