#N canvas 266 41 1082 828 10;
#X declare -path ../;
#X obj 35 131 cnv 15 1020 576 empty empty empty 20 12 0 14 -41876 -262144
0;
#N canvas 40 23 1204 695 input-output 0;
#X obj 101 101 cnv 15 1019 78 empty empty 4-synsli 400 30 0 34 -21525
-249661 0;
#N canvas 406 214 450 300 close 0;
#X obj 103 169 bng 15 250 50 0 empty empty empty 17 7 0 10 -262144
-1 -1;
#X obj 101 101 hradio 28 1 0 2 empty empty empty 0 -8 0 10 -262144
-1 -1 0;
#X obj 102 102 cnv 15 54 26 empty empty Quitter 3 12 0 12 -233017 -66577
0;
#X obj 91 48 inlet;
#X msg 104 193 \; pd-example/example2.pd menuclose \;;
#X connect 0 0 4 0;
#X connect 1 0 0 0;
#X connect 3 0 0 0;
#X coords 0 -1 1 1 58 30 1 100 100;
#X restore 1053 205 pd close;
#X obj 949 46 declare -path ../;
#X obj 535 567 dac~;
#X obj 535 543 *~ 1;
#X obj 104 149 arduino/arduino;
#X obj 486 192 arduino/arduino_in;
#X obj 859 513 audio/tempo;
#X obj 1080 413 loadbang;
#X obj 1080 443 s tempoGoIn;
#X obj 654 584 arduino/arduino_out;
#X obj 593 427 audio/4_free_loop 1;
#X obj 383 428 audio/4_sync_loop 1;
#X obj 499 148 cnv 15 170 30 empty empty Niveau:1 20 15 0 28 -233017
-66577 0;
#X connect 4 0 3 0;
#X connect 4 0 3 1;
#X connect 6 0 7 2;
#X connect 6 1 12 1;
#X connect 6 6 11 0;
#X connect 6 7 11 1;
#X connect 6 8 11 2;
#X connect 6 9 11 3;
#X connect 8 0 9 0;
#X connect 11 0 4 0;
#X connect 12 0 4 0;
#X connect 12 1 10 0;
#X coords 0 -1 1 1 1020 80 2 100 100;
#X restore 35 48 pd input-output;
#X obj 35 711 UI/ui_tempo;
#X obj 529 167 UI/ui_4_free_loop 1;
#X obj 296 170 UI/ui_4_sync_loop 1;
