#N canvas 490 23 1172 958 10;
#X declare -path ../;
#X obj 634 213 declare -path ../;
#X obj 159 327 dac~;
#X obj 665 359 extra/tempo;
#X obj 78 396 UI/ui_4_sync_loop 1;
#X obj 267 396 UI/ui_4_sync_loop 2;
#X obj 443 396 UI/ui_4_sync_loop 3;
#X obj 497 86 audio/4_free_loop 1;
#X obj 191 87 audio/4_sync_loop 2;
#X obj 627 397 UI/ui_4_free_loop 1;
#X obj 63 914 UI/ui_tempo;
#X obj 48 87 audio/4_sync_loop 1;
#X obj 320 87 audio/4_sync_loop 3;
#X connect 6 0 1 0;
#X connect 6 0 1 1;
#X connect 7 0 1 0;
#X connect 7 0 1 1;
#X connect 10 0 1 0;
#X connect 10 0 1 1;
#X connect 11 0 1 0;
#X connect 11 0 1 1;
