#N canvas 148 151 1601 774 10;
#X declare -path ../;
#X obj 568 276 declare -path ../;
#X obj 23 437 UI/ui_tempo;
#X obj 139 98 audio/recloop 1;
#X obj 140 148 dac~;
#X obj 108 34 adc~;
#X obj 256 98 audio/4_sync_loop 1;
#X obj 725 -93 UI/ui_4_sync_loop 1;
#X obj 933 -93 UI/ui_recloop 1;
#X obj 408 103 audio/recloop 2;
#X obj 1240 -93 UI/ui_recloop 2;
#X obj 532 319 audio/tempo;
#X connect 2 0 3 0;
#X connect 2 0 3 1;
#X connect 4 0 2 0;
#X connect 4 0 8 0;
#X connect 5 0 3 0;
#X connect 5 0 3 1;
#X connect 8 0 3 0;
#X connect 8 0 3 1;
