#N canvas 257 249 999 407 10;
#X obj 217 264 outlet~;
#X obj -8 56 r \$0_path1;
#X obj 212 52 r \$0_path2;
#X obj 432 53 r \$0_path3;
#X obj 666 54 r \$0_path4;
#N canvas 615 23 771 283 filePath 0;
#X obj 51 84 pack f \$1;
#X obj 51 158 s \$0_path1;
#X obj 235 159 s \$0_path2;
#X obj 421 158 s \$0_path3;
#X obj 605 159 s \$0_path4;
#X obj 152 29 loadbang;
#X msg 152 55 1;
#X msg 50 122 samples/\$1/OneShot/\$2/1.wav;
#X msg 235 123 samples/\$1/OneShot/\$2/2.wav;
#X msg 421 122 samples/\$1/OneShot/\$2/3.wav;
#X msg 605 123 samples/\$1/OneShot/\$2/4.wav;
#X obj 50 35 r tempo_style;
#X connect 0 0 7 0;
#X connect 0 0 8 0;
#X connect 0 0 9 0;
#X connect 0 0 10 0;
#X connect 5 0 6 0;
#X connect 6 0 0 0;
#X connect 7 0 1 0;
#X connect 8 0 2 0;
#X connect 9 0 3 0;
#X connect 10 0 4 0;
#X connect 11 0 0 0;
#X restore 886 25 pd filePath;
#X obj 37 77 r \$0_play1;
#X obj 257 72 r \$0_play2;
#X obj 477 72 r \$0_play3;
#X obj 711 74 r \$0_play4;
#N canvas 615 23 450 300 play 0;
#X obj 130 103 inlet;
#X obj 176 103 inlet;
#X obj 221 103 inlet;
#X obj 267 103 inlet;
#X obj 109 186 s \$0_play1;
#X obj 179 186 s \$0_play2;
#X obj 248 186 s \$0_play3;
#X obj 318 186 s \$0_play4;
#X obj 56 123 tgl 15 0 empty empty empty 17 7 0 10 -262144 -1 -1 0
1;
#X connect 0 0 4 0;
#X connect 1 0 5 0;
#X connect 2 0 6 0;
#X connect 3 0 7 0;
#X connect 8 0 4 0;
#X restore 349 1 pd play;
#X obj 335 -64 inlet;
#X obj 375 -63 inlet;
#X obj 415 -63 inlet;
#X obj 455 -64 inlet;
#X obj 523 -62 inlet;
#X text 595 -62 swtich to record mode;
#X obj 523 4 s \$0_recordmode;
#X obj 82 99 r \$0_recordmode;
#X obj 302 99 r \$0_recordmode;
#X obj 522 99 r \$0_recordmode;
#X obj 756 99 r \$0_recordmode;
#X obj 523 -23 extra/sv 4_free_sound_recmode_\$1;
#X obj 752 -82 loadbang;
#X msg 752 -61 0;
#X obj 261 -64 inlet~;
#X text 173 -57 sound input for recording;
#X obj 212 142 readsound \$1 2;
#X obj 566 -62 bng 15 250 50 0 empty empty empty 17 7 0 10 -262144
-1 -1;
#X obj -8 142 readsound \$1 1;
#X obj 432 141 readsound \$1 3;
#X obj 666 141 readsound \$1 4;
#X obj 261 -16 s~ audioIn1;
#X obj 559 262 r \$0_recordmode;
#X obj 559 303 outlet;
#X connect 1 0 29 0;
#X connect 2 0 27 0;
#X connect 3 0 30 0;
#X connect 4 0 31 0;
#X connect 6 0 29 1;
#X connect 7 0 27 1;
#X connect 8 0 30 1;
#X connect 9 0 31 1;
#X connect 11 0 10 0;
#X connect 12 0 10 1;
#X connect 13 0 10 2;
#X connect 14 0 10 3;
#X connect 15 0 22 0;
#X connect 18 0 29 2;
#X connect 19 0 27 2;
#X connect 20 0 30 2;
#X connect 21 0 31 2;
#X connect 22 0 17 0;
#X connect 23 0 24 0;
#X connect 24 0 22 1;
#X connect 25 0 32 0;
#X connect 27 0 0 0;
#X connect 28 0 22 0;
#X connect 29 0 0 0;
#X connect 30 0 0 0;
#X connect 31 0 0 0;
#X connect 33 0 34 0;
