#N canvas 558 552 999 384 10;
#X obj 217 264 outlet~;
#X obj -8 142 readsound freesound\$1 1;
#X obj 212 142 readsound freesound\$1 2;
#X obj 432 141 readsound freesound\$1 3;
#X obj 666 141 readsound freesound\$1 4;
#X obj -8 56 r \$0_path1;
#X obj 212 52 r \$0_path2;
#X obj 432 53 r \$0_path3;
#X obj 666 54 r \$0_path4;
#N canvas 0 22 450 300 filePath 0;
#X obj 50 35 r loop_styleIN;
#X obj 51 84 pack f \$1;
#X obj 51 158 s \$0_path1;
#X obj 235 159 s \$0_path2;
#X obj 421 158 s \$0_path3;
#X obj 605 159 s \$0_path4;
#X obj 152 29 loadbang;
#X msg 152 55 1;
#X msg 50 122 samples/\$1/OneShot/\$2/1.wav;
#X msg 235 123 samples/\$1/OneShot/\$2/2.wav;
#X msg 421 122 samples/\$1/OneShot/\$2/3.wav;
#X msg 605 123 samples/\$1/OneShot/\$2/4.wav;
#X connect 0 0 1 0;
#X connect 1 0 8 0;
#X connect 1 0 9 0;
#X connect 1 0 10 0;
#X connect 1 0 11 0;
#X connect 6 0 7 0;
#X connect 7 0 1 0;
#X connect 8 0 2 0;
#X connect 9 0 3 0;
#X connect 10 0 4 0;
#X connect 11 0 5 0;
#X restore 886 25 pd filePath;
#X obj 59 87 r \$0_play1;
#X obj 279 90 r \$0_play2;
#X obj 499 89 r \$0_play3;
#X obj 733 92 r \$0_play4;
#N canvas 615 23 450 300 play 1;
#X obj 130 103 inlet;
#X obj 176 103 inlet;
#X obj 221 103 inlet;
#X obj 267 103 inlet;
#X obj 109 186 s \$0_play1;
#X obj 179 186 s \$0_play2;
#X obj 248 186 s \$0_play3;
#X obj 318 186 s \$0_play4;
#X obj 56 123 tgl 15 0 empty empty empty 17 7 0 10 -262144 -1 -1 0
1;
#X connect 0 0 4 0;
#X connect 1 0 5 0;
#X connect 2 0 6 0;
#X connect 3 0 7 0;
#X connect 8 0 4 0;
#X restore 349 1 pd play;
#X obj 335 -64 inlet;
#X obj 375 -63 inlet;
#X obj 415 -63 inlet;
#X obj 455 -64 inlet;
#X connect 1 0 0 0;
#X connect 2 0 0 0;
#X connect 3 0 0 0;
#X connect 4 0 0 0;
#X connect 5 0 1 0;
#X connect 6 0 2 0;
#X connect 7 0 3 0;
#X connect 8 0 4 0;
#X connect 10 0 1 1;
#X connect 11 0 2 1;
#X connect 12 0 3 1;
#X connect 13 0 4 1;
#X connect 15 0 14 0;
#X connect 16 0 14 1;
#X connect 17 0 14 2;
#X connect 18 0 14 3;
