#N canvas 246 94 750 689 10;
#X obj 266 354 *~ 1;
#X obj 127 132 r \$0_select1;
#X obj 297 132 r \$0_select2;
#X obj 457 132 r \$0_select3;
#X obj 627 132 r \$0_select4;
#X obj 326 100 inlet~;
#X obj 266 438 outlet~;
#X obj 34 188 recloopsave 1 1;
#X obj 204 188 recloopsave 2 1;
#X obj 364 188 recloopsave 3 1;
#X obj 534 188 recloopsave 4 1;
#X connect 0 0 6 0;
#X connect 1 0 7 3;
#X connect 2 0 8 3;
#X connect 3 0 9 3;
#X connect 4 0 10 3;
#X connect 5 0 7 0;
#X connect 5 0 8 0;
#X connect 5 0 9 0;
#X connect 5 0 10 0;
#X connect 7 0 0 0;
#X connect 8 0 0 0;
#X connect 9 0 0 0;
#X connect 10 0 0 0;
