#N canvas 110 105 871 514 10;
#X obj 266 354 *~ 1;
#X obj 121 132 r \$0_select1;
#X obj 291 132 r \$0_select2;
#X obj 451 132 r \$0_select3;
#X obj 621 132 r \$0_select4;
#X obj 326 100 inlet~;
#X obj 266 438 outlet~;
#X obj 364 188 recloopsave 3 1;
#N canvas 840 163 758 300 select 0;
#X obj 74 15 extra/sv col_selected;
#X obj 77 74 sel 0 1 2 3;
#X obj 47 188 s \$0_select1;
#X obj 133 189 s \$0_select2;
#X obj 212 188 s \$0_select3;
#X obj 294 187 s \$0_select4;
#X msg 298 82 0;
#X obj 77 40 t f b;
#X msg 53 113 1;
#X msg 86 113 1;
#X msg 114 114 1;
#X msg 147 114 1;
#X text 69 -6 Select the looper;
#X text 428 -8 route record/play;
#X obj 404 18 inlet;
#X obj 410 87 extra/sv col_selected;
#X obj 410 123 pack f f;
#X obj 404 42 t b f;
#X obj 410 154 route 0 1 2 3;
#X obj 402 198 s \$0_record1;
#X obj 482 198 s \$0_record2;
#X obj 561 198 s \$0_record3;
#X obj 641 198 s \$0_record4;
#X obj 736 19 inlet;
#X obj 742 88 extra/sv col_selected;
#X obj 742 124 pack f f;
#X obj 736 43 t b f;
#X obj 742 155 route 0 1 2 3;
#X obj 734 199 s \$0_play1;
#X obj 814 199 s \$0_play2;
#X obj 893 199 s \$0_play3;
#X obj 973 199 s \$0_play4;
#X connect 0 0 7 0;
#X connect 1 0 8 0;
#X connect 1 1 9 0;
#X connect 1 2 10 0;
#X connect 1 3 11 0;
#X connect 6 0 5 0;
#X connect 6 0 4 0;
#X connect 6 0 3 0;
#X connect 6 0 2 0;
#X connect 7 0 1 0;
#X connect 7 1 6 0;
#X connect 8 0 2 0;
#X connect 9 0 3 0;
#X connect 10 0 4 0;
#X connect 11 0 5 0;
#X connect 14 0 17 0;
#X connect 15 1 16 0;
#X connect 16 0 18 0;
#X connect 17 0 15 2;
#X connect 17 1 16 1;
#X connect 18 0 19 0;
#X connect 18 1 20 0;
#X connect 18 2 21 0;
#X connect 18 3 22 0;
#X connect 23 0 26 0;
#X connect 24 1 25 0;
#X connect 25 0 27 0;
#X connect 26 0 24 2;
#X connect 26 1 25 1;
#X connect 27 0 28 0;
#X connect 27 1 29 0;
#X connect 27 2 30 0;
#X connect 27 3 31 0;
#X restore 532 -8 pd select;
#X obj 64 67 r \$0_record1;
#X obj 233 67 r \$0_record2;
#X obj 393 67 r \$0_record3;
#X obj 563 67 r \$0_record4;
#X obj 93 41 r \$0_play1;
#X obj 262 41 r \$0_play2;
#X obj 422 41 r \$0_play3;
#X obj 592 41 r \$0_play4;
#X obj 532 -39 inlet;
#X obj 583 -37 inlet;
#X text 406 -39 global record/play;
#X obj 34 188 recloopsave 1 1;
#X obj 204 188 recloopsave 2 1;
#X obj 534 188 recloopsave 4 1;
#X connect 0 0 6 0;
#X connect 1 0 20 3;
#X connect 2 0 21 3;
#X connect 3 0 7 3;
#X connect 4 0 22 3;
#X connect 5 0 7 0;
#X connect 5 0 20 0;
#X connect 5 0 21 0;
#X connect 5 0 22 0;
#X connect 7 0 0 0;
#X connect 9 0 20 1;
#X connect 10 0 21 1;
#X connect 11 0 7 1;
#X connect 12 0 22 1;
#X connect 13 0 20 2;
#X connect 14 0 21 2;
#X connect 15 0 7 2;
#X connect 16 0 22 2;
#X connect 17 0 8 0;
#X connect 18 0 8 1;
#X connect 20 0 0 0;
#X connect 21 0 0 0;
#X connect 22 0 0 0;
