#N canvas 246 94 750 689 10;
#X obj 34 188 recloopsave \$1 1;
#X obj 266 354 *~ 1;
#X obj 297 -5 vradio 15 1 0 4 empty empty empty 0 -8 0 10 -262144 -1
-1 0;
#X obj 127 132 r \$0_select1;
#X obj 297 132 r \$0_select2;
#X obj 457 132 r \$0_select3;
#X obj 627 132 r \$0_select4;
#N canvas 144 224 560 386 select 0;
#X obj 112 58 inlet;
#X obj 112 90 t f b;
#X msg 139 125 0;
#X obj 207 166 s \$0_select1;
#X obj 207 185 s \$0_select2;
#X obj 207 205 s \$0_select3;
#X obj 207 225 s \$0_select4;
#X obj 112 226 sel 0 1 2 3;
#X obj 26 272 s \$0_select1;
#X obj 102 272 s \$0_select2;
#X obj 179 272 s \$0_select3;
#X obj 255 272 s \$0_select4;
#X obj -174 272 extra/sv \$1_4_recloopsave_select;
#X obj -59 54 loadbang;
#X msg -59 80 0;
#X connect 0 0 1 0;
#X connect 1 0 7 0;
#X connect 1 0 12 3;
#X connect 1 1 2 0;
#X connect 2 0 3 0;
#X connect 2 0 4 0;
#X connect 2 0 5 0;
#X connect 2 0 6 0;
#X connect 7 0 8 0;
#X connect 7 1 9 0;
#X connect 7 2 10 0;
#X connect 7 3 11 0;
#X connect 13 0 14 0;
#X connect 14 0 1 0;
#X restore 297 67 pd select;
#N canvas 457 252 1018 542 play_selected 0;
#X obj 17 379 extra/sv \$1_1_is_loop_waitforplay;
#X obj 227 379 extra/sv \$1_2_is_loop_waitforplay;
#X obj 437 379 extra/sv \$1_3_is_loop_waitforplay;
#X obj 647 379 extra/sv \$1_4_is_loop_waitforplay;
#X msg 745 278 0;
#X text 777 278 First stop everything;
#X obj 99 19 r play_line;
#X obj 231 55 t f b;
#X obj 231 142 sel 0 1 2 3;
#X msg 230 201 1;
#X msg 260 201 1;
#X msg 290 201 1;
#X msg 320 201 1;
#X connect 4 0 3 1;
#X connect 4 0 2 1;
#X connect 4 0 1 1;
#X connect 4 0 0 1;
#X connect 6 0 7 0;
#X connect 7 0 8 0;
#X connect 7 1 4 0;
#X connect 8 0 9 0;
#X connect 8 1 10 0;
#X connect 8 2 11 0;
#X connect 8 3 12 0;
#X connect 9 0 0 1;
#X connect 10 0 1 1;
#X connect 11 0 2 1;
#X connect 12 0 3 1;
#X restore 419 67 pd play_selected;
#X obj 326 100 inlet~;
#X obj 266 438 outlet~;
#X obj 340 6 extra/sv line_selected;
#X obj 204 188 recloopsave \$1 2;
#X obj 364 188 recloopsave \$1 3;
#X obj 534 188 recloopsave \$1 4;
#X connect 0 0 1 0;
#X connect 1 0 10 0;
#X connect 2 0 7 0;
#X connect 3 0 0 3;
#X connect 4 0 12 3;
#X connect 5 0 13 3;
#X connect 6 0 14 3;
#X connect 9 0 0 0;
#X connect 9 0 12 0;
#X connect 9 0 13 0;
#X connect 9 0 14 0;
#X connect 11 0 7 0;
#X connect 12 0 1 0;
#X connect 13 0 1 0;
#X connect 14 0 1 0;
