#N canvas 432 23 1164 791 10;
#X obj 513 69 bng 15 250 50 0 empty empty empty 17 7 0 10 -262144 -1
-1;
#X obj 513 33 r tempo_click_bang;
#X obj 164 207 r \$0_path1;
#X obj 433 216 r \$0_path2;
#N canvas 593 325 997 416 files_path 0;
#X obj 156 10 r loop_styleIN;
#X obj 157 59 pack f \$1;
#X msg 157 97 samples/\$1/SyncLoop/\$2/1.wav;
#X obj 157 133 s \$0_path1;
#X obj 341 134 s \$0_path2;
#X msg 341 98 samples/\$1/SyncLoop/\$2/2.wav;
#X obj 527 133 s \$0_path3;
#X obj 711 134 s \$0_path4;
#X msg 527 97 samples/\$1/SyncLoop/\$2/3.wav;
#X msg 711 98 samples/\$1/SyncLoop/\$2/4.wav;
#X obj 258 4 loadbang;
#X msg 258 30 1;
#X connect 0 0 1 0;
#X connect 1 0 2 0;
#X connect 1 0 5 0;
#X connect 1 0 8 0;
#X connect 1 0 9 0;
#X connect 2 0 3 0;
#X connect 5 0 4 0;
#X connect 8 0 6 0;
#X connect 9 0 7 0;
#X connect 10 0 11 0;
#X connect 11 0 1 0;
#X restore 535 -33 pd files_path;
#X obj 674 210 r \$0_path3;
#X obj 674 210 r \$0_path3;
#X obj 943 215 r \$0_path4;
#X obj 283 207 r \$0_play1;
#X obj 553 214 r \$0_play2;
#X obj 793 209 r \$0_play3;
#X obj 1062 213 r \$0_play4;
#N canvas 417 153 1466 495 changeloop 0;
#X obj 374 16 sel 0;
#X msg 401 59 0;
#X msg 373 59 1;
#X obj 460 -32 hradio 15 1 0 5 empty empty empty 0 -8 0 10 -262144
-1 -1 1;
#X obj 348 -112 r tempo_quantif_bang;
#X obj 471 -78 i 0;
#X obj 471 -56 change;
#X obj 772 -60 sel 0 1 2 3;
#X obj 772 9 bng 15 250 50 0 empty empty empty 17 7 0 10 -262144 -1
-1;
#X obj 802 9 bng 15 250 50 0 empty empty empty 17 7 0 10 -262144 -1
-1;
#X obj 854 8 bng 15 250 50 0 empty empty empty 17 7 0 10 -262144 -1
-1;
#X obj 889 8 bng 15 250 50 0 empty empty empty 17 7 0 10 -262144 -1
-1;
#X obj 531 -179 vradio 15 1 0 5 empty empty empty 0 -8 0 10 -262144
-1 -1 1;
#X obj 531 -203 inlet;
#X msg 461 59 0;
#X msg 433 59 1;
#X msg 521 59 0;
#X msg 493 59 1;
#X msg 581 59 0;
#X msg 554 59 1;
#X msg 641 59 0;
#X msg 613 59 1;
#X obj 434 16 sel 1;
#X obj 494 16 sel 2;
#X obj 554 16 sel 3;
#X obj 614 16 sel 4;
#X obj 373 133 s \$0_play1;
#X obj 443 134 s \$0_play2;
#X obj 513 134 s \$0_play3;
#X obj 583 134 s \$0_play4;
#X obj 771 128 s syncloop\$1_1_readloop_wait_ui;
#X obj 801 98 s syncloop\$1_2_readloop_wait_ui;
#X obj 854 68 s syncloop\$1_3_readloop_wait_ui;
#X obj 889 38 s syncloop\$1_4_readloop_wait_ui;
#X obj 639 -241 r \$0_click1;
#X obj 718 -241 r \$0_click2;
#X obj 799 -241 r \$0_click3;
#X obj 879 -241 r \$0_click4;
#X msg 639 -219 0;
#X msg 718 -219 1;
#X msg 799 -219 2;
#X msg 879 -219 3;
#X obj 361 -252 loadbang;
#X msg 361 -230 4;
#X obj 983 -239 r \$1_5_click_fromUI;
#X msg 983 -217 4;
#X obj 919 -22 bng 15 250 50 0 empty empty empty 17 7 0 10 -262144
-1 -1;
#X obj 919 8 s syncloop\$1_5_readloop_wait_ui;
#X obj 685 -92 change;
#X obj 663 137 s \$1_play5;
#X connect 0 0 2 0;
#X connect 0 1 1 0;
#X connect 1 0 26 0;
#X connect 2 0 26 0;
#X connect 3 0 0 0;
#X connect 3 0 22 0;
#X connect 3 0 23 0;
#X connect 3 0 24 0;
#X connect 3 0 25 0;
#X connect 4 0 5 0;
#X connect 5 0 6 0;
#X connect 6 0 3 0;
#X connect 7 0 8 0;
#X connect 7 1 9 0;
#X connect 7 2 10 0;
#X connect 7 3 11 0;
#X connect 7 4 46 0;
#X connect 8 0 30 0;
#X connect 9 0 31 0;
#X connect 10 0 32 0;
#X connect 11 0 33 0;
#X connect 12 0 5 1;
#X connect 12 0 48 0;
#X connect 13 0 12 0;
#X connect 14 0 27 0;
#X connect 15 0 27 0;
#X connect 16 0 28 0;
#X connect 17 0 28 0;
#X connect 18 0 29 0;
#X connect 19 0 29 0;
#X connect 20 0 49 0;
#X connect 21 0 49 0;
#X connect 22 0 15 0;
#X connect 22 1 14 0;
#X connect 23 0 17 0;
#X connect 23 1 16 0;
#X connect 24 0 19 0;
#X connect 24 1 18 0;
#X connect 25 0 21 0;
#X connect 25 1 20 0;
#X connect 34 0 38 0;
#X connect 35 0 39 0;
#X connect 36 0 40 0;
#X connect 37 0 41 0;
#X connect 38 0 12 0;
#X connect 39 0 12 0;
#X connect 40 0 12 0;
#X connect 41 0 12 0;
#X connect 42 0 43 0;
#X connect 43 0 12 0;
#X connect 44 0 45 0;
#X connect 45 0 12 0;
#X connect 46 0 47 0;
#X connect 48 0 7 0;
#X restore 648 -33 pd changeloop;
#X obj 648 -116 vradio 15 1 0 5 empty empty empty 0 -8 0 10 -262144
-1 -1 1;
#X obj 164 245 audio/readloop syncloop\$1 1;
#X obj 648 -155 inlet;
#X obj 323 282 s \$0_click1;
#X obj 593 282 s \$0_click2;
#X obj 834 282 s \$0_click3;
#X obj 1101 282 s \$0_click4;
#X obj 674 245 audio/readloop syncloop\$1 3;
#X obj 434 245 audio/readloop syncloop\$1 2;
#X obj 943 245 audio/readloop syncloop\$1 4;
#N canvas 0 22 450 300 load_UI 0;
#X obj 132 20 loadbang;
#X obj 132 51 i \$1;
#X obj 132 85 sel 1 2 3;
#X msg 116 117 batterie;
#X msg 191 116 accords;
#X msg 258 116 melodies;
#X obj 143 150 symbol;
#X msg 140 185 label \$1;
#X obj 143 222 s \$1_syncloopname;
#X connect 0 0 1 0;
#X connect 1 0 2 0;
#X connect 2 0 3 0;
#X connect 2 1 4 0;
#X connect 2 2 5 0;
#X connect 3 0 6 0;
#X connect 4 0 6 0;
#X connect 5 0 6 0;
#X connect 6 0 7 0;
#X connect 7 0 8 0;
#X restore 389 -31 pd load_UI;
#X obj 430 451 *~ 1;
#X obj 430 511 outlet~;
#X obj 865 -151 inlet;
#X obj 865 -123 / 255;
#X obj 865 -63 s \$1_syncloop_volume;
#X obj 865 -89 * 2;
#X obj 655 391 r \$1_syncloop_volume;
#X obj 579 579 r syncloop\$1_1_readloop_wait_ui;
#X obj 692 631 r syncloop\$1_2_readloop_wait_ui;
#X obj 630 604 r syncloop\$1_3_readloop_wait_ui;
#N canvas 0 22 717 379 ledout 1;
#X obj 136 -98 tgl 15 0 empty empty empty 17 7 0 10 -262144 -1 -1 1
1;
#X obj 136 -71 sel 1;
#X msg 112 -168 bang;
#X obj 114 -277 inlet;
#X obj 334 -275 inlet;
#X obj 335 -199 t b b;
#X msg 328 -156 stop;
#X obj 395 -198 t b b;
#X obj 336 -240 sel 1;
#X msg 335 -27 1;
#X msg 372 -27 0;
#X obj 338 47 outlet;
#X obj 136 -127 metro 200;
#X connect 0 0 1 0;
#X connect 1 0 9 0;
#X connect 1 1 10 0;
#X connect 2 0 12 0;
#X connect 3 0 2 0;
#X connect 4 0 8 0;
#X connect 5 0 9 0;
#X connect 5 1 6 0;
#X connect 6 0 12 0;
#X connect 7 0 10 0;
#X connect 7 1 6 0;
#X connect 8 0 5 0;
#X connect 8 1 7 0;
#X connect 9 0 11 0;
#X connect 10 0 11 0;
#X connect 12 0 0 0;
#X restore 827 700 pd ledout;
#X obj 1003 524 r \$0_play1;
#X msg 1013 666 1;
#X obj 1021 557 r \$0_play2;
#X obj 1047 583 r \$0_play3;
#X msg 1138 665 0;
#X obj 1153 555 r \$1_play5;
#X obj 1014 634 sel 1;
#X obj 811 555 r syncloop\$1_5_readloop_wait_ui;
#X obj 828 739 outlet;
#X obj 774 730 tgl 15 0 empty empty empty 17 7 0 10 -262144 -1 -1 1
1;
#X obj 1144 623 sel 1;
#X connect 0 0 14 2;
#X connect 0 0 20 2;
#X connect 0 0 21 2;
#X connect 0 0 22 2;
#X connect 1 0 0 0;
#X connect 2 0 14 0;
#X connect 3 0 21 0;
#X connect 5 0 20 0;
#X connect 7 0 22 0;
#X connect 8 0 14 3;
#X connect 9 0 21 3;
#X connect 10 0 20 3;
#X connect 11 0 22 3;
#X connect 13 0 12 0;
#X connect 14 0 24 0;
#X connect 14 2 16 0;
#X connect 15 0 13 0;
#X connect 20 0 24 0;
#X connect 20 2 18 0;
#X connect 21 0 24 0;
#X connect 21 2 17 0;
#X connect 22 0 24 0;
#X connect 22 2 19 0;
#X connect 24 0 25 0;
#X connect 26 0 27 0;
#X connect 27 0 29 0;
#X connect 29 0 28 0;
#X connect 30 0 24 1;
#X connect 31 0 34 0;
#X connect 32 0 34 0;
#X connect 33 0 34 0;
#X connect 34 0 43 0;
#X connect 34 0 44 0;
#X connect 35 0 41 0;
#X connect 36 0 34 1;
#X connect 37 0 41 0;
#X connect 38 0 41 0;
#X connect 39 0 34 1;
#X connect 40 0 45 0;
#X connect 41 0 36 0;
#X connect 42 0 34 0;
#X connect 45 0 39 0;
