#N canvas 160 23 921 542 10;
#X obj 44 154 inlet~;
#X obj 968 344 array size export;
#X obj 199 176 bng 15 250 50 0 empty empty start 17 7 0 10 -262144
-1 -1;
#X obj 641 232 writesf~;
#X obj 739 344 soundfiler;
#X obj 739 280 savepanel;
#X obj 739 189 bng 15 250 50 0 empty empty save 17 7 0 10 -262144 -1
-1;
#X msg 739 312 write -wave \$1 export;
#X obj 354 230 timer;
#X obj 196 409 line;
#X obj 196 458 s export_slider;
#X msg 90 377 0;
#X obj 155 321 / 44.1;
#X obj 155 350 pack f f;
#X obj 276 63 r \$0_totalduration;
#X obj 381 176 bng 15 250 50 0 empty empty stop 17 7 0 10 -262144 -1
-1;
#X obj 44 224 tabwrite~ export;
#X obj 199 152 inlet;
#X obj 381 151 inlet;
#X msg 166 201 stop;
#X msg 989 220 \; export const 0;
#X obj 958 187 bng 15 250 50 0 empty empty clear 17 7 0 10 -262144
-1 -1;
#X obj 90 330 r \$0_stop;
#X obj 411 231 s \$0_stop;
#X obj 200 284 i 100000;
#X obj 245 231 r \$0_exportsize;
#X obj 1010 322 s \$0_exportsize;
#X msg 987 293 441000;
#X obj 277 395 print;
#X obj 930 377 s \$0_stop;
#X msg 927 350 0;
#X msg 196 380 100 \$1;
#X msg 348 353 100 10000;
#X connect 0 0 16 0;
#X connect 2 0 8 0;
#X connect 2 0 16 0;
#X connect 2 0 24 0;
#X connect 5 0 7 0;
#X connect 6 0 5 0;
#X connect 7 0 4 0;
#X connect 9 0 10 0;
#X connect 11 0 9 0;
#X connect 12 0 13 0;
#X connect 13 0 31 0;
#X connect 15 0 8 1;
#X connect 15 0 19 0;
#X connect 15 0 23 0;
#X connect 17 0 2 0;
#X connect 18 0 15 0;
#X connect 19 0 16 0;
#X connect 21 0 20 0;
#X connect 21 0 27 0;
#X connect 21 0 30 0;
#X connect 22 0 11 0;
#X connect 24 0 12 0;
#X connect 24 0 13 1;
#X connect 25 0 24 1;
#X connect 27 0 1 0;
#X connect 27 0 26 0;
#X connect 30 0 29 0;
#X connect 31 0 9 0;
#X connect 31 0 28 0;
#X connect 32 0 9 0;
