#N canvas 293 402 1280 699 10;
#X obj 1 -116 cnv 15 130 498 empty empty AUDIO 16 16 0 23 -170675 -66577
0;
#X obj 5 -89 cnv 15 123 20 empty empty MICROPHONE 3 9 0 20 -170675
-66577 0;
#X obj 47 70 vu 15 120 empty empty -1 -8 0 10 -66577 -1 1 0;
#X obj 147 382 - 90;
#X obj 238 -99 inlet~;
#X obj 17 278 vsl 50 95 0 255 0 0 mic_volume_raw empty volume 5 12
0 10 -86735 -262144 -262144 0 0;
#X obj 74 323 vsl 36 50 0 120 0 0 mic_effect1OUT mic_effect1IN delay
3 14 0 10 -86735 -262144 -262144 0 0;
#X obj 147 356 env~ 4096 4096;
#X obj 237 -63 cnv 15 200 350 empty empty Threshold 20 12 0 14 -233017
-66577 0;
#X obj 18 67 vsl 15 128 40 90 0 0 mic_threshold empty empty 0 -9 0
10 -262144 -1 -1 0 1;
#X obj 768 -84 inlet;
#X obj 768 -16 / 255;
#X obj 768 35 * 2;
#X obj 768 64 s mic_volume;
#X obj 832 -131 r mic_volume_fromUI;
#X floatatom 832 -109 5 0 0 0 - - -, f 5;
#X obj 832 -67 extra/save_int mic_volume;
#X floatatom 833 -15 5 0 0 0 - - -, f 5;
#N canvas 540 364 845 414 drywet 0;
#X obj 598 112 / 100;
#X obj 81 -28 inlet~;
#X obj 63 208 outlet~;
#X obj 564 192 outlet~;
#X floatatom 629 197 5 0 0 0 - - -, f 5;
#X obj 652 52 r mic_effect1OUT;
#X obj 60 150 *~ 0;
#X obj 107 52 r mic_volume;
#X floatatom 144 151 5 0 0 0 - - -, f 5;
#X obj 573 139 *~ 0;
#X obj 104 91 - 0;
#X connect 0 0 9 1;
#X connect 1 0 6 0;
#X connect 1 0 9 0;
#X connect 5 0 0 0;
#X connect 5 0 4 0;
#X connect 6 0 2 0;
#X connect 7 0 10 0;
#X connect 9 0 3 0;
#X connect 10 0 6 1;
#X connect 10 0 8 0;
#X restore 250 300 pd drywet;
#X obj 250 373 outlet~;
#X obj 301 373 outlet~;
#X floatatom 295 48 5 0 0 0 - - -, f 5;
#X obj 295 194 line~;
#X msg 295 160 1 10;
#X obj 239 228 *~;
#X obj 295 107 sel 1;
#X msg 331 160 0 100;
#X obj 295 7 env~ 1024;
#X obj 295 83 > 40;
#X obj 464 -69 cnv 15 200 350 empty empty Setting-Threshold 20 12 0
14 -233017 -66577 0;
#X obj 483 24 i 0;
#X floatatom 511 19 5 0 0 0 - - -, f 5;
#X obj 483 0 r mic_threshold_fromUI;
#X obj 483 53 extra/save_int mic_threshold;
#X obj 483 -23 s mic_threshold_fromUI;
#X floatatom 482 -47 5 0 0 0 - - -, f 5;
#X obj 147 416 s mic_postvumetre;
#X obj 146 62 - 90;
#X obj 146 36 env~ 4096 4096;
#X obj 146 96 s mic_prevumetre;
#X obj 19 15 r mic_postvumetre;
#X obj 860 65 s mic_volume_toUI;
#X connect 3 0 36 0;
#X connect 4 0 24 0;
#X connect 4 0 27 0;
#X connect 4 0 38 0;
#X connect 7 0 3 0;
#X connect 10 0 11 0;
#X connect 11 0 12 0;
#X connect 12 0 13 0;
#X connect 14 0 15 0;
#X connect 15 0 11 0;
#X connect 15 0 16 0;
#X connect 16 0 11 0;
#X connect 16 0 17 0;
#X connect 17 0 41 0;
#X connect 18 0 19 0;
#X connect 18 0 7 0;
#X connect 18 1 20 0;
#X connect 21 0 28 0;
#X connect 22 0 24 1;
#X connect 23 0 22 0;
#X connect 24 0 18 0;
#X connect 25 0 23 0;
#X connect 25 1 26 0;
#X connect 26 0 22 0;
#X connect 27 0 21 0;
#X connect 28 0 25 0;
#X connect 30 0 33 0;
#X connect 32 0 30 0;
#X connect 32 0 31 0;
#X connect 32 0 28 1;
#X connect 33 0 28 1;
#X connect 35 0 34 0;
#X connect 37 0 39 0;
#X connect 38 0 37 0;
#X connect 40 0 2 0;
#X coords 0 699 1 698 132 500 0;
