#N canvas 191 184 1006 635 12;
#N canvas 808 380 401 202 table 0;
#N canvas 0 50 450 300 (subpatch) 0;
#X array \$0_loop 66000 float 0;
#X coords 0 -1 65999 1 300 130 2 0 0;
#X restore 46 193 graph;
#X obj 54 113 array size \$0_loop;
#X obj 54 29 extra/sv \$1_\$2_recmode;
#X obj 54 57 sel 1;
#X msg 54 86 66000;
#X connect 2 0 3 0;
#X connect 3 0 4 0;
#X connect 4 0 1 0;
#X restore 340 52 pd table;
#X obj 217 -70 soundfiler;
#N canvas 972 164 728 558 ouput-effect 0;
#X obj 181 191 *~ 1;
#X obj -90 113 inlet~;
#X obj -89 260 outlet~;
#X obj 172 244 outlet~;
#X obj -89 211 *~ 1;
#X obj -4 111 r \$0_volume;
#X obj -4 136 / 255;
#X obj -4 161 * 2;
#X obj 131 109 r \$1_\$2_readloop_volume_fromUI;
#X connect 0 0 3 0;
#X connect 1 0 0 0;
#X connect 1 0 4 0;
#X connect 4 0 2 0;
#X connect 5 0 6 0;
#X connect 6 0 7 0;
#X connect 7 0 4 1;
#X connect 8 0 6 0;
#X restore 515 217 pd ouput-effect;
#X obj 237 59 vsl 50 95 0 200 0 0 \$1_loop_volumeOUT \$1_loop_volumeIN
volume 5 12 0 10 -86735 -262144 -262144 0 0;
#X obj 292 104 vsl 36 50 0 120 0 0 \$1_loop_effect1OUT \$1_loop_effect1IN
delay 3 14 0 10 -86735 -262144 -262144 0 0;
#X obj 222 59 vsl 8 95 0 127 0 0 empty \$1_loop_vumetreIN empty 0 -9
0 10 -228856 -159808 -1 0 1;
#N canvas 411 392 703 360 init 0;
#X floatatom 279 45 4 0 100 0 - - -, f 4;
#X obj 279 65 * 0.001;
#X text 314 45 msec;
#X obj 279 -9 bang;
#X obj 279 -39 loadbang;
#X obj 279 88 s \$0_chunk-size;
#X msg 279 23 40;
#X obj 436 19 extra/sv \$1_\$2_isplaying;
#X msg 395 -11 0;
#X obj 437 63 extra/sv \$1_\$2_recmode;
#X connect 0 0 1 0;
#X connect 1 0 5 0;
#X connect 3 0 6 0;
#X connect 4 0 3 0;
#X connect 4 0 8 0;
#X connect 6 0 0 0;
#X connect 8 0 7 1;
#X connect 8 0 9 1;
#X restore 339 81 pd init;
#X obj 196 253 tgl 15 0 empty empty empty 17 7 0 10 -262144 -1 -1 0
1;
#X obj 258 282 hsl 128 15 0 1 0 0 empty empty empty -2 -8 0 10 -262144
-1 -1 0 1;
#X floatatom 253 338 5 0 0 0 - - -, f 5;
#X obj 484 245 cnv 15 650 70 empty empty TO::OUTLET 20 12 0 14 -261682
-66577 0;
#X obj 365 -238 cnv 15 650 70 empty empty FROM::INLET 20 12 0 14 -261682
-66577 0;
#X text 38 -255 RECEIVE FROM SENSOR;
#X obj 886 -235 inlet;
#X obj 632 275 outlet~;
#X obj 515 277 outlet~;
#X obj 255 249 r \$1_\$2_readloop_slider_ui;
#X obj 253 307 r \$1_\$2_readloop_wait;
#X obj 217 -176 inlet;
#X obj 514 178 *~ 1;
#X obj 217 -127 pack s \$0;
#X obj 196 216 r \$1_\$2_readloop_play_ui;
#X obj 1024 -236 cnv 15 300 100 empty empty empty 20 12 0 14 -233017
-66577 0;
#X obj 1029 259 outlet;
#X obj 1106 -225 r \$1_\$2_click_fromUI;
#X obj 886 -200 change;
#X obj 886 -175 s \$0_volume;
#X obj 515 -235 inlet;
#X obj 579 -215 tgl 45 0 empty empty simply-read 0 -14 0 10 -244370
-1 -1 0 1;
#N canvas 219 148 1011 666 simply-read 0;
#X obj 208 176 bng 15 250 50 0 empty empty empty 17 7 0 10 -262144
-1 -1;
#X msg 149 317 0 \$1;
#X obj 156 443 outlet~;
#X obj 149 346 line~ 0 100;
#X obj 156 406 *~;
#X obj 146 147 sel 0;
#X obj 146 51 route float bang;
#X msg 374 376 0;
#X obj 646 457 line;
#X msg 876 421 0;
#X obj 874 374 r \$0_end;
#X obj 80 252 f 1;
#X obj 647 489 s \$1_\$2_readloop_slider_ui;
#X obj 249 346 tabplay~ \$0_loop;
#X obj 186 255 r \$1_\$2_readloop_release_fromUI;
#X obj 149 292 i 500;
#X obj 646 355 i 0;
#X obj 667 329 r \$0_loop_duration;
#X msg 645 414 1 \$1;
#X obj 645 386 / 44;
#X obj 669 242 t b b b;
#X obj 551 417 delay 200;
#X obj 556 369 bang;
#X obj 209 518 extra/sv \$1_\$2_isplaying;
#X obj 145 1 inlet;
#X obj 386 316 tabread4~ \$0_loop;
#X obj 387 288 line~;
#X msg 582 260 0;
#X obj 254 313 bng 15 250 50 0 empty empty empty 17 7 0 10 -262144
-1 -1;
#X obj 460 227 t b b;
#N canvas 455 221 450 300 createRamp 0;
#X obj 117 58 inlet;
#X text 170 60 bang the ramp;
#X obj 155 85 r \$0_loop_duration;
#X obj 194 191 / 44;
#X obj 155 161 t f f;
#X floatatom 330 57 5 0 0 0 - - -, f 5;
#X obj 117 219 pack 1 f f;
#X msg 117 247 \$2 \$3;
#X obj 117 280 outlet;
#X obj 155 119 f 0;
#X obj 330 86 t b f;
#X obj 330 21 inlet;
#X msg 383 53 44;
#X obj 383 20 r \$0_resetPitch;
#X connect 0 0 6 0;
#X connect 2 0 9 0;
#X connect 3 0 6 2;
#X connect 4 0 6 1;
#X connect 4 1 3 0;
#X connect 5 0 10 0;
#X connect 6 0 7 0;
#X connect 7 0 8 0;
#X connect 9 0 4 0;
#X connect 10 0 9 0;
#X connect 10 1 3 1;
#X connect 11 0 5 0;
#X connect 12 0 10 0;
#X connect 13 0 12 0;
#X restore 455 258 pd createRamp;
#X connect 0 0 11 0;
#X connect 0 0 20 0;
#X connect 0 0 29 0;
#X connect 1 0 3 0;
#X connect 3 0 4 1;
#X connect 4 0 2 0;
#X connect 5 0 15 0;
#X connect 5 1 0 0;
#X connect 6 0 5 0;
#X connect 6 1 0 0;
#X connect 7 0 23 1;
#X connect 8 0 12 0;
#X connect 9 0 8 0;
#X connect 10 0 9 0;
#X connect 11 0 3 0;
#X connect 13 0 4 0;
#X connect 13 1 7 0;
#X connect 14 0 15 1;
#X connect 15 0 1 0;
#X connect 16 0 19 0;
#X connect 17 0 16 1;
#X connect 18 0 8 0;
#X connect 19 0 18 0;
#X connect 19 0 21 1;
#X connect 20 0 22 0;
#X connect 20 1 16 0;
#X connect 20 2 9 0;
#X connect 22 0 21 0;
#X connect 24 0 6 0;
#X connect 25 0 4 0;
#X connect 26 0 25 0;
#X connect 27 0 26 0;
#X connect 28 0 13 0;
#X connect 29 0 30 0;
#X connect 29 1 27 0;
#X connect 30 0 26 0;
#X restore 514 149 pd simply-read;
#N canvas 485 144 493 253 filesize 0;
#X obj 205 33 inlet;
#X obj 204 73 s \$0_loop_duration;
#X msg 165 147 \; exampleArray resize \$1;
#X connect 0 0 1 0;
#X restore 217 -41 pd filesize;
#X msg 1106 -199 1;
#X obj 705 -234 inlet;
#N canvas 359 170 475 418 simply-record 0;
#X obj 146 17 inlet;
#X obj 146 147 sel 0;
#X obj 146 51 route float bang;
#X obj 81 313 hip~ 5;
#X msg 205 212 bang;
#X text 252 214 <-- record;
#X obj 81 362 tabwrite~ \$0_loop;
#X obj 81 246 r~ audioIn1;
#X msg 247 313 stop;
#X obj 247 284 delay 1500;
#X obj 308 397 s \$0_loop_duration;
#X msg 308 338 1500;
#X obj 199 267 bng 15 250 50 0 empty empty empty 17 7 0 10 -262144
-1 -1;
#X obj 245 352 bng 15 250 50 0 empty empty empty 17 7 0 10 -262144
-1 -1;
#X obj 310 371 * 44.1;
#X obj 379 274 s \$0_resetPitch;
#X connect 0 0 2 0;
#X connect 1 1 4 0;
#X connect 2 0 1 0;
#X connect 2 1 4 0;
#X connect 3 0 6 0;
#X connect 4 0 6 0;
#X connect 4 0 9 0;
#X connect 4 0 12 0;
#X connect 4 0 15 0;
#X connect 7 0 3 0;
#X connect 8 0 6 0;
#X connect 8 0 11 0;
#X connect 8 0 13 0;
#X connect 9 0 8 0;
#X connect 11 0 14 0;
#X connect 14 0 10 0;
#X restore 654 149 pd simply-record;
#X obj 648 -198 extra/sv \$1_\$2_recmode;
#X obj 648 -160 tgl 45 0 empty empty rec_mode 0 -14 0 10 -258113 -1
-1 0 1;
#X obj 433 -96 extra/sv \$1_\$2_isplaying;
#X obj 1043 -172 extra/sv \$1_\$2_isplaying;
#X obj 713 14 extra/sv \$1_\$2_recmode;
#X obj 486 -163 route bang float;
#X msg 486 -135 1;
#X obj 614 100 f 0;
#X obj 654 100 f 0;
#X obj 886 40 sel 0 1;
#X msg 217 -96 read -resize \$1 \$2_loop;
#X obj 30 -177 r \$1_\$2_freesound_open;
#X obj 30 -148 openpanel;
#X obj 618 -17 t b f;
#N canvas 0 50 450 300 open 0;
#X text 107 107 Open from saved song;
#X obj 283 105 extra/sv song;
#X obj 61 38 r loadsong;
#X obj 61 80 t b b;
#X obj 61 60 bng 15 250 50 0 empty empty empty 17 7 0 10 -262144 -1
-1;
#X obj 61 137 pack \$1 1;
#X obj 61 241 s \$0_path1;
#X msg 61 192 ../samples/saved/\$2/freesound\$2_1.wav;
#X connect 1 1 5 1;
#X connect 2 0 4 0;
#X connect 3 0 5 0;
#X connect 3 1 1 2;
#X connect 4 0 3 0;
#X connect 5 0 7 0;
#X connect 7 0 6 0;
#X restore 52 2 pd open;
#X connect 1 0 30 0;
#X connect 2 0 15 0;
#X connect 2 1 14 0;
#X connect 13 0 25 0;
#X connect 16 0 8 0;
#X connect 17 0 9 0;
#X connect 18 0 20 0;
#X connect 19 0 2 0;
#X connect 20 0 44 0;
#X connect 21 0 7 0;
#X connect 24 0 31 0;
#X connect 25 0 26 0;
#X connect 27 0 28 0;
#X connect 27 0 39 0;
#X connect 29 0 19 0;
#X connect 31 0 37 1;
#X connect 32 0 34 1;
#X connect 34 0 35 0;
#X connect 36 0 47 0;
#X connect 38 1 43 0;
#X connect 39 0 40 0;
#X connect 39 1 36 1;
#X connect 40 0 36 1;
#X connect 41 0 29 0;
#X connect 42 0 33 0;
#X connect 43 0 41 0;
#X connect 43 1 42 0;
#X connect 44 0 1 0;
#X connect 45 0 46 0;
#X connect 46 0 20 0;
#X connect 47 0 38 2;
#X connect 47 1 42 1;
#X connect 47 1 41 1;
#X coords 0 635 1 634 132 500 0;
