#N canvas 243 126 1383 922 12;
#N canvas 814 290 401 271 table 0;
#X obj 45 2 adc~ 1;
#X obj 45 69 hip~ 5;
#X msg 60 91 bang;
#X text 101 91 <-- record;
#N canvas 0 50 450 300 (subpatch) 0;
#X array \$0_loop 2.7e+06 float 0 black black;
#X coords 0 300 2.7e+06 299 200 130 0;
#X restore 191 34 graph;
#X obj 45 118 tabwrite~ \$0_loop;
#X connect 1 0 5 0;
#X connect 2 0 5 0;
#X restore 182 428 pd table;
#X obj 467 207 soundfiler;
#N canvas 972 164 728 558 ouput-effect 0;
#X obj 181 191 *~ 1;
#X obj -90 113 inlet~;
#X obj -89 260 outlet~;
#X obj 172 244 outlet~;
#X obj -89 211 *~ 1;
#X obj -4 111 r \$0_volume;
#X obj -4 136 / 255;
#X obj -4 161 * 2;
#X obj 131 109 r \$1_\$2_readloop_volume_fromUI;
#X connect 0 0 3 0;
#X connect 1 0 0 0;
#X connect 1 0 4 0;
#X connect 4 0 2 0;
#X connect 5 0 6 0;
#X connect 6 0 7 0;
#X connect 7 0 4 1;
#X connect 8 0 6 0;
#X restore 605 374 pd ouput-effect;
#X obj 327 346 vsl 50 95 0 200 0 0 \$1_loop_volumeOUT \$1_loop_volumeIN
volume 5 12 0 10 -86735 -262144 -262144 0 0;
#X obj 382 391 vsl 36 50 0 120 0 0 \$1_loop_effect1OUT \$1_loop_effect1IN
delay 3 14 0 10 -86735 -262144 -262144 0 0;
#X obj 312 346 vsl 8 95 0 127 0 0 empty \$1_loop_vumetreIN empty 0
-9 0 10 -228856 -159808 -1 0 1;
#N canvas 411 392 703 360 init 0;
#X floatatom 279 45 4 0 100 0 - - -, f 4;
#X obj 279 65 * 0.001;
#X text 314 45 msec;
#X obj 279 -9 bang;
#X obj 279 -39 loadbang;
#X obj 279 88 s \$0_chunk-size;
#X msg 279 23 40;
#X connect 0 0 1 0;
#X connect 1 0 5 0;
#X connect 3 0 6 0;
#X connect 4 0 3 0;
#X connect 6 0 0 0;
#X restore 110 427 pd init;
#X obj -84 533 cnv 15 650 70 empty empty TO::UI 20 12 0 14 -261682
-66577 0;
#X obj -34 571 tgl 15 0 empty empty empty 17 7 0 10 -262144 -1 -1 0
1;
#X obj 348 569 hsl 128 15 0 1 0 0 empty empty empty -2 -8 0 10 -262144
-1 -1 12700 1;
#X floatatom 167 566 5 0 0 0 - - -, f 5;
#X obj 574 532 cnv 15 650 70 empty empty TO::OUTLET 20 12 0 14 -261682
-66577 0;
#X obj 455 49 cnv 15 650 70 empty empty FROM::INLET 20 12 0 14 -261682
-66577 0;
#X text 128 32 RECEIVE FROM SENSOR;
#X obj 774 56 inlet;
#X obj 722 562 outlet~;
#X obj 605 564 outlet~;
#X obj 345 536 r \$1_\$2_readloop_slider_ui;
#X obj 167 535 r \$1_\$2_readloop_wait;
#X obj 467 101 inlet;
#X obj 604 335 *~ 1;
#X obj 396 212 print;
#X obj 467 150 pack s \$0;
#X msg 467 181 read \$1 \$2_loop;
#X obj -34 534 r \$1_\$2_readloop_play_ui;
#X obj 1114 51 cnv 15 300 100 empty empty empty 20 12 0 14 -233017
-66577 0;
#X obj 1119 546 outlet;
#X obj 1136 62 r \$1_\$2_click_fromUI;
#X obj 774 91 change;
#X obj 774 116 s \$0_volume;
#X obj 605 52 inlet;
#X obj 604 112 tgl 45 0 empty empty simply-read 0 -14 0 10 -244370
-1 -1 0 1;
#N canvas 659 105 1011 666 simply-read 0;
#X obj 146 17 inlet;
#X obj 208 176 bng 15 250 50 0 empty empty empty 17 7 0 10 -262144
-1 -1;
#X msg 149 317 0 \$1;
#X obj 156 443 outlet~;
#X obj 149 346 line~ 0 100;
#X obj 156 406 *~;
#X obj 146 147 sel 0;
#X obj 146 51 route float bang;
#X msg 374 376 0;
#X obj 374 419 s \$0_end;
#X obj 646 457 line;
#X msg 876 421 0;
#X obj 874 374 r \$0_end;
#X obj 80 252 f 1;
#X obj 648 489 s \$1_\$2_readloop_slider_ui;
#X obj 249 345 tabplay~ \$0_loop;
#X obj 193 254 r \$1_\$2_readloop_release_fromUI;
#X obj 149 292 i 500;
#X obj 326 390 bng 15 250 50 0 empty empty empty 17 7 0 10 -262144
-1 -1;
#X obj 646 355 i 0;
#X obj 665 327 r \$0_loop_duration;
#X msg 645 414 1 \$1;
#X obj 645 386 / 44;
#X obj 462 499 s \$1_\$2_readloop_play_ui;
#X obj 669 242 t b b b;
#X obj 551 417 delay 200;
#X obj 556 369 bang;
#X msg 495 450 1;
#X msg 531 450 0;
#X connect 0 0 7 0;
#X connect 1 0 13 0;
#X connect 1 0 15 0;
#X connect 1 0 24 0;
#X connect 2 0 4 0;
#X connect 4 0 5 1;
#X connect 5 0 3 0;
#X connect 6 0 17 0;
#X connect 6 1 1 0;
#X connect 7 0 6 0;
#X connect 7 1 1 0;
#X connect 8 0 9 0;
#X connect 10 0 14 0;
#X connect 11 0 10 0;
#X connect 12 0 11 0;
#X connect 13 0 4 0;
#X connect 15 0 5 0;
#X connect 15 1 8 0;
#X connect 15 1 18 0;
#X connect 16 0 17 1;
#X connect 17 0 2 0;
#X connect 19 0 22 0;
#X connect 20 0 19 1;
#X connect 21 0 10 0;
#X connect 22 0 21 0;
#X connect 22 0 25 1;
#X connect 24 0 26 0;
#X connect 24 1 19 0;
#X connect 24 2 11 0;
#X connect 25 0 28 0;
#X connect 26 0 25 0;
#X connect 26 0 27 0;
#X connect 27 0 23 0;
#X connect 28 0 23 0;
#X restore 604 217 pd simply-read;
#N canvas 485 144 493 253 filesize 0;
#X obj 205 33 inlet;
#X obj 204 73 s \$0_loop_duration;
#X msg 165 147 \; exampleArray resize \$1;
#X connect 0 0 1 0;
#X connect 0 0 2 0;
#X restore 467 236 pd filesize;
#X msg 1136 95 1;
#X connect 1 0 33 0;
#X connect 2 0 16 0;
#X connect 2 1 15 0;
#X connect 14 0 28 0;
#X connect 17 0 9 0;
#X connect 18 0 10 0;
#X connect 19 0 22 0;
#X connect 20 0 2 0;
#X connect 22 0 23 0;
#X connect 23 0 1 0;
#X connect 23 0 21 0;
#X connect 24 0 8 0;
#X connect 27 0 34 0;
#X connect 28 0 29 0;
#X connect 30 0 31 0;
#X connect 31 0 32 0;
#X connect 32 0 20 0;
#X connect 34 0 32 0;
#X coords 0 922 1 921 132 500 0;
