#N canvas 469 23 1147 760 10;
#X obj 56 622 symbol \$1;
#X msg 56 649 label \$1;
#X obj 56 596 makefilename %d;
#X text 796 548 STYLE MANAGEMENT;
#X floatatom 853 674 5 0 0 0 - - -, f 5;
#X obj 56 571 r tempo_valueOUT;
#X obj 55 679 s tempo_valueIN;
#X text 57 548 Write tempo value on slider;
#X obj 745 153 key;
#X floatatom 786 181 5 0 0 0 - - -, f 5;
#X obj 744 198 sel 32;
#X text 800 204 SPACE FOR PLAY STOP;
#X obj 367 105 r tempoValue;
#X obj 73 172 s tempoGoOutBang;
#X obj 181 117 tgl 15 0 empty empty empty 17 7 0 10 -262144 -1 -1 0
1;
#X obj 181 32 r tempoGoIn;
#X obj 260 31 r tempoStopIn;
#X msg 260 57 0;
#X msg 181 57 1;
#X obj 218 172 s tempoStopOut;
#X obj 181 148 sel 1;
#X obj 208 385 bng 15 250 50 0 empty empty empty 17 7 0 10 -262144
-1 -1;
#X obj 44 449 s tempo_click_bang;
#X obj 208 358 metro 600;
#X floatatom 361 313 10 0 0 0 - - -, f 10;
#X obj 549 347 / 1000;
#X obj 549 378 pow -1;
#X obj 549 404 * 60;
#X floatatom 549 435 5 0 0 0 - - -, f 5;
#X obj 549 463 s tempo_valueOUT;
#X msg 209 214 stop;
#X obj 230 620 ../extra/save_int tempoStyle;
#X obj 230 591 r tempoSave;
#X obj 230 647 s tempoValue;
#X obj 235 471 s tempo_quantif_bang;
#X obj 203 471 bng 15 250 50 0 empty empty empty 17 7 0 10 -262144
-1 -1;
#X obj 181 242 bang;
#N canvas 0 22 450 300 quantif 0;
#X msg 114 48 0;
#X obj 114 22 r tempoStopOut;
#X floatatom 187 139 5 0 0 0 - - -, f 5;
#X obj 187 105 i 0;
#X obj 235 131 + 1;
#X obj 187 158 % 8;
#X floatatom 187 182 5 0 0 0 - - -, f 5;
#X text 234 184 receive global quantification;
#X obj 231 27 inlet;
#X obj 187 224 outlet;
#X obj 187 202 sel 1;
#X obj 11 24 r tempoGoIn;
#X obj 319 122 r quantif_global;
#X msg 81 96 8;
#X connect 0 0 3 0;
#X connect 1 0 0 0;
#X connect 1 0 13 0;
#X connect 2 0 5 0;
#X connect 3 0 2 0;
#X connect 3 0 4 0;
#X connect 4 0 3 1;
#X connect 5 0 6 0;
#X connect 6 0 10 0;
#X connect 8 0 3 0;
#X connect 10 0 9 0;
#X connect 11 0 0 0;
#X connect 12 0 5 1;
#X connect 13 0 5 1;
#X restore 235 440 pd quantif;
#X obj 208 410 t b b;
#X obj 613 155 r tempo_fromUI;
#X obj 613 184 / 60;
#X obj 613 209 pow -1;
#X obj 613 233 * 1000;
#X obj 369 183 t b b f;
#X obj 312 225 s tempoGoIn;
#X obj 181 89 change -1;
#X obj 355 34 loadbang;
#X obj 278 152 print stopOut;
#X obj 891 577 r tempo_changestyle_fromUI;
#X obj 853 726 s tempo_style;
#X connect 0 0 1 0;
#X connect 1 0 6 0;
#X connect 2 0 0 0;
#X connect 4 0 49 0;
#X connect 5 0 2 0;
#X connect 8 0 9 0;
#X connect 8 0 10 0;
#X connect 12 0 43 0;
#X connect 14 0 20 0;
#X connect 15 0 18 0;
#X connect 16 0 17 0;
#X connect 17 0 45 0;
#X connect 18 0 45 0;
#X connect 20 0 13 0;
#X connect 20 0 36 0;
#X connect 20 1 19 0;
#X connect 20 1 30 0;
#X connect 20 1 47 0;
#X connect 21 0 38 0;
#X connect 23 0 21 0;
#X connect 24 0 23 1;
#X connect 24 0 25 0;
#X connect 25 0 26 0;
#X connect 26 0 27 0;
#X connect 27 0 28 0;
#X connect 28 0 29 0;
#X connect 30 0 23 0;
#X connect 31 0 33 0;
#X connect 32 0 31 0;
#X connect 36 0 23 0;
#X connect 37 0 34 0;
#X connect 37 0 35 0;
#X connect 38 0 22 0;
#X connect 38 1 37 0;
#X connect 39 0 40 0;
#X connect 40 0 41 0;
#X connect 41 0 42 0;
#X connect 42 0 24 0;
#X connect 43 0 44 0;
#X connect 43 2 24 0;
#X connect 45 0 14 0;
#X connect 46 0 17 0;
#X connect 48 0 4 0;
#X coords 0 760 1 759 1000 60 0;
