#N canvas 0 22 1280 699 10;
#X obj 56 561 symbol \$1;
#X msg 56 588 label \$1;
#X obj 56 535 makefilename %d;
#X text 871 -66 STYLE MANAGEMENT;
#X floatatom 823 144 5 0 0 0 - - -, f 5;
#X obj 56 510 r tempo_valueOUT;
#X obj 55 618 s tempo_valueIN;
#X text 57 487 Write tempo value on slider;
#X obj 882 338 key;
#X floatatom 923 366 5 0 0 0 - - -, f 5;
#X obj 881 383 sel 32;
#X text 937 389 SPACE FOR PLAY STOP;
#X obj 367 91 r tempoValue;
#X obj 73 111 s tempoGoOutBang;
#X obj 181 56 tgl 15 0 empty empty empty 17 7 0 10 -262144 -1 -1 1
1;
#X obj 181 -29 r tempoGoIn;
#X obj 260 -30 r tempoStopIn;
#X msg 260 -4 0;
#X msg 181 -4 1;
#X obj 218 111 s tempoStopOut;
#X obj 181 87 sel 1;
#X obj 208 324 bng 15 250 50 0 empty empty empty 17 7 0 10 -262144
-1 -1;
#X obj 44 388 s tempo_click_bang;
#X obj 208 297 metro 600;
#X floatatom 408 249 10 0 0 0 - - -, f 10;
#X obj 408 296 / 1000;
#X obj 408 327 pow -1;
#X obj 408 353 * 60;
#X floatatom 408 384 5 0 0 0 - - -, f 5;
#X obj 408 412 s tempo_valueOUT;
#X msg 209 153 stop;
#X obj 230 559 ../extra/save_int tempoStyle;
#X obj 230 530 r tempoSave;
#X obj 230 586 s tempoValue;
#X obj 235 410 s tempo_quantif_bang;
#X obj 203 410 bng 15 250 50 0 empty empty empty 17 7 0 10 -262144
-1 -1;
#X obj 181 181 bang;
#N canvas 163 110 648 379 quantif 0;
#X msg 157 73 0;
#X obj 260 23 r tempoStopOut;
#X floatatom 157 139 5 0 0 0 - - -, f 5;
#X obj 157 105 i 0;
#X obj 214 105 + 1;
#X obj 157 198 % 8;
#X floatatom 157 222 5 0 0 0 - - -, f 5;
#X obj 86 59 inlet;
#X obj 157 264 outlet;
#X obj 157 242 sel 1;
#X obj 157 23 r tempoGoIn;
#X msg 260 135 8;
#X obj 306 147 extra/sv quantif_global;
#X obj 351 91 loadbang;
#X msg 351 116 4;
#X connect 0 0 3 0;
#X connect 1 0 0 0;
#X connect 1 0 11 0;
#X connect 2 0 5 0;
#X connect 3 0 2 0;
#X connect 3 0 4 0;
#X connect 4 0 3 1;
#X connect 5 0 6 0;
#X connect 6 0 9 0;
#X connect 7 0 3 0;
#X connect 9 0 8 0;
#X connect 10 0 0 0;
#X connect 11 0 5 1;
#X connect 12 0 5 1;
#X connect 13 0 14 0;
#X connect 14 0 12 1;
#X restore 235 379 pd quantif;
#X obj 208 349 t b b;
#X obj 635 -2 r tempo_fromUI;
#X obj 613 80 / 60;
#X obj 613 105 pow -1;
#X obj 613 129 * 1000;
#X obj 369 122 t b b f;
#X obj 335 164 s tempoGoIn;
#X obj 181 28 change -1;
#X obj 355 -27 loadbang;
#X obj 891 102 r tempo_changestyle_fromUI;
#X obj 823 178 s tempo_style;
#X obj 884 469 loadbang;
#X msg 884 500 \; pd dsp 1;
#X obj 432 123 bng 15 250 50 0 empty empty empty 17 7 0 10 -262144
-1 -1;
#X obj 577 -66 inlet;
#X obj 577 -40 / 255;
#X obj 577 -14 * 80;
#X obj 577 10 + 80;
#X text 627 -50 tempo from potar;
#X obj 577 52 change;
#X obj 106 -30 inlet;
#X text 964 494 DSP PURE DATA;
#X obj 819 -66 inlet;
#X obj 819 -40 / 255;
#X obj 819 -14 * 4;
#X obj 823 87 + 1;
#X obj 889 137 s tempo_style_toUI;
#X obj 819 33 change;
#X floatatom 819 55 5 0 0 0 - - -, f 5;
#X obj 577 32 i 0;
#X obj 819 8 i 0;
#X obj 1075 -63 inlet;
#X obj 1075 67 s transpose;
#X text 1121 -55 PITCH GLOBAL;
#X obj 1075 -31 / 255;
#X obj 1075 -9 * 200;
#X obj 1075 44 - 100;
#X obj 1075 14 i 0;
#N canvas 904 352 470 409 changeTempoFromStyle 0;
#X msg 140 193 rewind;
#X msg 80 193 bang;
#X obj 160 243 textfile;
#X obj 160 266 unpack f;
#X obj 160 288 i 0;
#X obj 146 29 i 0;
#X obj 146 61 t b b f;
#X msg 193 194 read ../samples/\$1/tempo.txt;
#X obj 160 328 s tempo_fromStyle;
#X obj 146 -1 inlet;
#X connect 0 0 2 0;
#X connect 1 0 2 0;
#X connect 2 0 3 0;
#X connect 3 0 4 0;
#X connect 4 0 8 0;
#X connect 5 0 6 0;
#X connect 6 0 1 0;
#X connect 6 1 0 0;
#X connect 6 2 7 0;
#X connect 7 0 2 0;
#X connect 9 0 5 0;
#X restore 911 177 pd changeTempoFromStyle;
#X obj 654 22 r tempo_fromStyle;
#X obj 722 177 extra/sv song;
#X floatatom 722 209 5 0 0 0 - - -, f 5;
#X obj 417 513 r save_all;
#X obj 417 542 bng 15 250 50 0 empty empty empty 17 7 0 10 -262144
-1 -1;
#N canvas 491 312 450 300 saveTempoToFile 0;
#X obj 165 103 i 0;
#X msg 211 164 add2 \$1;
#X msg 267 165 clear;
#X obj 165 125 t b b f b;
#X obj 150 271 textfile;
#X obj 46 86 extra/sv song;
#X obj 11 182 pack 0 f;
#X msg 11 207 write ../samples/saved/\$2/tempo.txt;
#X obj 165 30 inlet;
#X connect 0 0 3 0;
#X connect 1 0 4 0;
#X connect 2 0 4 0;
#X connect 3 0 6 0;
#X connect 3 2 1 0;
#X connect 3 3 2 0;
#X connect 5 0 6 1;
#X connect 6 0 7 0;
#X connect 7 0 4 0;
#X connect 8 0 0 0;
#X restore 416 625 pd saveTempoToFile;
#X obj 431 574 r tempo_valueOUT;
#X obj 416 599 f 0;
#X obj 583 512 r loadsong;
#X text 420 487 save a song;
#X text 581 485 load a song;
#X obj 652 514 extra/sv song;
#N canvas 904 352 470 409 changeTempoFromSong 0;
#X msg 140 193 rewind;
#X msg 80 193 bang;
#X obj 160 243 textfile;
#X obj 160 266 unpack f;
#X obj 160 288 i 0;
#X obj 146 29 i 0;
#X obj 146 61 t b b f;
#X obj 160 328 s tempo_fromStyle;
#X obj 146 -1 inlet;
#X msg 193 194 read ../samples/saved/\$1/tempo.txt;
#X connect 0 0 2 0;
#X connect 1 0 2 0;
#X connect 2 0 3 0;
#X connect 3 0 4 0;
#X connect 4 0 7 0;
#X connect 5 0 6 0;
#X connect 6 0 1 0;
#X connect 6 1 0 0;
#X connect 6 2 9 0;
#X connect 8 0 5 0;
#X connect 9 0 2 0;
#X restore 629 606 pd changeTempoFromSong;
#X obj 514 412 extra/sv tempo;
#X obj 866 12 loadbang;
#X msg 866 36 0;
#X obj 23 33 extra/sv tempo_isplaying;
#X text 213 62 Change on tempo;
#X obj 583 538 t b b;
#X obj 610 650 s tempoStopIn;
#X obj 629 564 i 1;
#X obj 513 490 loadbang;
#X obj 580 682 extra/sv col_selected;
#X msg 584 650 -1;
#X obj 513 516 delay 2000;
#X connect 0 0 1 0;
#X connect 1 0 6 0;
#X connect 2 0 0 0;
#X connect 4 0 48 0;
#X connect 4 0 76 0;
#X connect 5 0 2 0;
#X connect 8 0 9 0;
#X connect 8 0 10 0;
#X connect 12 0 43 0;
#X connect 12 0 51 0;
#X connect 15 0 18 0;
#X connect 16 0 17 0;
#X connect 17 0 45 0;
#X connect 17 0 93 1;
#X connect 18 0 45 0;
#X connect 18 0 93 1;
#X connect 20 0 13 0;
#X connect 20 0 36 0;
#X connect 20 1 19 0;
#X connect 20 1 30 0;
#X connect 21 0 38 0;
#X connect 23 0 21 0;
#X connect 24 0 23 1;
#X connect 24 0 25 0;
#X connect 25 0 26 0;
#X connect 26 0 27 0;
#X connect 27 0 28 0;
#X connect 28 0 29 0;
#X connect 28 0 90 1;
#X connect 30 0 23 0;
#X connect 31 0 33 0;
#X connect 32 0 31 0;
#X connect 36 0 23 0;
#X connect 37 0 34 0;
#X connect 37 0 35 0;
#X connect 38 0 22 0;
#X connect 38 1 37 0;
#X connect 39 0 40 0;
#X connect 40 0 41 0;
#X connect 41 0 42 0;
#X connect 42 0 24 0;
#X connect 43 0 44 0;
#X connect 43 2 24 0;
#X connect 45 0 14 0;
#X connect 46 0 17 0;
#X connect 47 0 4 0;
#X connect 49 0 50 0;
#X connect 52 0 53 0;
#X connect 53 0 54 0;
#X connect 54 0 55 0;
#X connect 55 0 67 0;
#X connect 57 0 40 0;
#X connect 58 0 45 0;
#X connect 60 0 61 0;
#X connect 61 0 62 0;
#X connect 62 0 68 0;
#X connect 63 0 64 0;
#X connect 63 0 78 1;
#X connect 63 0 4 0;
#X connect 65 0 66 0;
#X connect 66 0 63 0;
#X connect 67 0 57 0;
#X connect 68 0 65 0;
#X connect 69 0 72 0;
#X connect 72 0 73 0;
#X connect 73 0 75 0;
#X connect 74 0 70 0;
#X connect 75 0 74 0;
#X connect 77 0 40 0;
#X connect 78 0 79 0;
#X connect 80 0 81 0;
#X connect 81 0 84 0;
#X connect 83 0 84 1;
#X connect 84 0 82 0;
#X connect 85 0 95 0;
#X connect 88 0 97 1;
#X connect 91 0 92 0;
#X connect 92 0 66 0;
#X connect 93 0 20 0;
#X connect 95 0 97 0;
#X connect 95 0 100 0;
#X connect 95 1 96 0;
#X connect 97 0 89 0;
#X connect 98 0 101 0;
#X connect 100 0 99 1;
#X connect 101 0 95 0;
#X coords 0 699 1 698 1000 60 0;
