#N canvas 344 66 956 687 10;
#X obj 19 511 hip~ 5;
#X floatatom 25 38 0 0 100 0 - - -;
#X obj 25 63 * 441;
#X obj 20 380 +~ 1;
#X text 69 35 <-- chunk size (100ths of a second);
#X obj 20 458 *~;
#X obj 26 211 line~;
#X obj 26 161 * 441;
#X floatatom 26 136 0 0 100 0 - - -;
#X obj 26 186 pack 0 100;
#X text 60 137 <-- read point in 100ths of a second;
#X obj 20 409 +~;
#X obj 76 408 samphold~;
#X obj 20 308 samphold~;
#X obj 20 355 *~;
#X floatatom 477 177 0 0 0 0 - - -;
#X obj 77 57 * 0.01;
#X text 189 58 chunk size;
#X text 189 80 in seconds;
#X obj 488 257 t b f;
#X obj 477 281 /;
#X obj 477 154 loadbang;
#X obj 185 393 -~ 0.5;
#X obj 185 417 *~ 0.5;
#X obj 185 440 cos~;
#X text 666 202 speed change;
#X obj 477 305 phasor~;
#N canvas 782 333 660 275 table 0;
#N canvas 0 50 450 300 (subpatch) 0;
#X array \$0-table22 44103 float 0;
#X coords 0 1.02 44100 -1.02 200 130 1 0 0;
#X restore 442 61 graph;
#X text 444 195 --- 44103 samples ---;
#X obj 45 69 hip~ 5;
#X msg 161 88 bang;
#X text 202 88 <-- record;
#X obj 41 -6 inlet~;
#X obj 209 -8 inlet;
#X obj 209 16 route int bang;
#X obj 208 42 sel 0;
#X obj 240 67 bang;
#X obj 45 118 tabwrite~ \$0-table22;
#X connect 2 0 10 0;
#X connect 3 0 10 0;
#X connect 5 0 2 0;
#X connect 6 0 7 0;
#X connect 7 0 8 0;
#X connect 7 2 3 0;
#X connect 8 1 9 0;
#X connect 9 0 3 0;
#X restore 583 -12 pd table;
#X text 211 112 ... and in samples;
#X obj 564 324 +~ 0.5;
#X obj 565 350 wrap~;
#X obj 274 391 +~ 1;
#X obj 274 469 *~;
#X obj 274 420 +~;
#X obj 329 419 samphold~;
#X obj 274 319 samphold~;
#X obj 274 366 *~;
#X obj 439 404 -~ 0.5;
#X obj 439 428 *~ 0.5;
#X obj 439 451 cos~;
#X obj 19 487 +~;
#X text 512 177 <-- transposition \, halftones/10;
#X text 515 280 loop frequency;
#X text 625 311 second phase signal;
#X text 625 331 out of phase from;
#X text 624 352 first one;
#X text 70 265 copy 1;
#X text 327 274 copy 2;
#X obj 576 -55 inlet~;
#X obj 634 -54 inlet;
#X obj 18 592 outlet~;
#X obj 689 -55 inlet;
#X obj 689 -30 / 255;
#X obj 689 -4 * 100;
#X obj 755 -55 inlet;
#X obj 794 55 sel 0;
#X obj 731 96 f 0;
#X obj 794 24 f 0;
#X obj 740 7 t b f;
#X obj 830 114 bang;
#X msg 791 84 0;
#X obj 477 202 expr pow(2 \, $f1/12);
#X obj 660 136 - 60;
#X obj 1 -66 cnv 15 198 53 empty empty SYNTHE_VOIX 17 28 0 14 -232576
-66577 0;
#X floatatom 850 22 5 0 0 0 - - -, f 5;
#X obj 20 283 r chunk-size-samples-\$0;
#X obj 274 294 r chunk-size-samples-\$0;
#X obj 26 234 s~ read-pt-\$0;
#X obj 25 110 s chunk-size-samples-\$0;
#X obj 77 82 s chunk-size-\$0;
#X obj 439 380 r~ phase2-\$0;
#X obj 565 375 s~ phase2-\$0;
#X obj 477 331 s~ phase-\$0;
#X obj 77 360 r~ read-pt-\$0;
#X obj 42 332 r~ phase-\$0;
#X obj 108 308 r~ phase-\$0;
#X obj 339 394 r~ phase2-\$0;
#X obj 330 371 r~ read-pt-\$0;
#X obj 363 320 r~ phase2-\$0;
#X obj 296 343 r~ phase2-\$0;
#X obj 185 369 r~ phase-\$0;
#X obj 96 383 r~ phase-\$0;
#X obj 488 232 r chunk-size-\$0;
#X obj 274 445 tabread4~ \$0-table22;
#X text 5 9 comment;
#X obj 1 -25 cnv 12 40 12 empty empty son 10 5 0 12 -4160 -1 0;
#X obj 1 -66 cnv 12 40 12 empty empty son 10 5 0 12 -4160 -1 0;
#X obj 59 -66 cnv 12 30 12 empty empty rec 4 6 0 12 -204786 -1 0;
#X obj 20 434 tabread4~ \$0-table22;
#X text 18 5 TWO OVERLAPPING SAMPLE READ ELEMENTS;
#X obj 159 -66 cnv 12 40 12 empty empty midi 4 6 0 12 -204799 -1 0
;
#X obj 101 -66 cnv 12 46 12 empty empty taille 2 6 0 12 -249508 -1
0;
#X obj 755 -24 unpack f f;
#X floatatom 701 46 5 0 0 0 - - -, f 5;
#X connect 0 0 50 0;
#X connect 1 0 2 0;
#X connect 1 0 16 0;
#X connect 2 0 68 0;
#X connect 3 0 11 0;
#X connect 5 0 40 0;
#X connect 6 0 67 0;
#X connect 7 0 9 0;
#X connect 8 0 7 0;
#X connect 9 0 6 0;
#X connect 11 0 88 0;
#X connect 12 0 11 1;
#X connect 13 0 14 0;
#X connect 14 0 3 0;
#X connect 15 0 61 0;
#X connect 16 0 69 0;
#X connect 19 0 20 0;
#X connect 19 1 20 1;
#X connect 20 0 26 0;
#X connect 21 0 15 0;
#X connect 22 0 23 0;
#X connect 23 0 24 0;
#X connect 24 0 5 1;
#X connect 26 0 29 0;
#X connect 26 0 72 0;
#X connect 29 0 30 0;
#X connect 30 0 71 0;
#X connect 31 0 33 0;
#X connect 32 0 40 1;
#X connect 33 0 83 0;
#X connect 34 0 33 1;
#X connect 35 0 36 0;
#X connect 36 0 31 0;
#X connect 37 0 38 0;
#X connect 38 0 39 0;
#X connect 39 0 32 1;
#X connect 40 0 0 0;
#X connect 48 0 27 0;
#X connect 49 0 27 1;
#X connect 51 0 52 0;
#X connect 52 0 53 0;
#X connect 53 0 1 0;
#X connect 54 0 92 0;
#X connect 55 0 60 0;
#X connect 55 1 59 0;
#X connect 56 0 62 0;
#X connect 57 0 55 0;
#X connect 58 0 57 0;
#X connect 58 1 56 1;
#X connect 59 0 56 0;
#X connect 60 0 26 0;
#X connect 61 0 20 0;
#X connect 62 0 61 0;
#X connect 65 0 13 0;
#X connect 66 0 35 0;
#X connect 70 0 37 0;
#X connect 73 0 12 0;
#X connect 74 0 14 1;
#X connect 75 0 13 1;
#X connect 76 0 34 1;
#X connect 77 0 34 0;
#X connect 78 0 35 1;
#X connect 79 0 36 1;
#X connect 80 0 22 0;
#X connect 81 0 12 1;
#X connect 82 0 19 0;
#X connect 83 0 32 0;
#X connect 88 0 5 0;
#X connect 92 0 58 0;
#X connect 92 0 93 0;
#X connect 92 1 57 1;
#X connect 92 1 64 0;
#X coords 0 -1 1 1 200 60 1 0 -70;
